<?xml version="1.0" encoding="UTF-8" standalone="no"?>
<svg xmlns="http://www.w3.org/2000/svg" xmlns:xlink="http://www.w3.org/1999/xlink" contentScriptType="application/ecmascript" contentStyleType="text/css" height="178px" preserveAspectRatio="none" style="width:783px;height:178px;background:#FFFFFF;" version="1.1" viewBox="0 0 783 178" width="783px" zoomAndPan="magnify"><defs><filter height="300%" id="f1m3egmbsx55bu" width="300%" x="-1" y="-1"><feGaussianBlur result="blurOut" stdDeviation="2.0"/><feColorMatrix in="blurOut" result="blurOut2" type="matrix" values="0 0 0 0 0 0 0 0 0 0 0 0 0 0 0 0 0 0 .4 0"/><feOffset dx="4.0" dy="4.0" in="blurOut2" result="blurOut3"/><feBlend in="SourceGraphic" in2="blurOut3" mode="normal"/></filter></defs><g><!--MD5=[786a416a6ee502ad4922c3f80b87123c]
class ICustomerID--><rect codeLine="3" fill="#FEFECE" filter="url(#f1m3egmbsx55bu)" height="48" id="ICustomerID" style="stroke:#A80036;stroke-width:1.5;" width="107" x="662" y="46"/><ellipse cx="677" cy="62" fill="#B4A7E5" rx="11" ry="11" style="stroke:#A80036;stroke-width:1.0;"/><path d="M677.9531,58.7813 L679.6719,58.7813 C680.0625,58.7813 680.25,58.75 680.375,58.6719 C680.6406,58.5156 680.7813,58.2344 680.7813,57.9375 C680.7813,57.6719 680.6719,57.4063 680.4375,57.2344 C680.2656,57.125 680.125,57.0938 679.6719,57.0938 L674.5313,57.0938 C674.0938,57.0938 673.9688,57.1094 673.8125,57.2031 C673.5625,57.3594 673.4063,57.6563 673.4063,57.9375 C673.4063,58.2188 673.5469,58.4688 673.7656,58.6406 C673.9219,58.75 674.1094,58.7813 674.5313,58.7813 L676.25,58.7813 L676.25,65.2969 L674.5313,65.2969 C674.0938,65.2969 673.9688,65.3125 673.8125,65.4219 C673.5625,65.5781 673.4063,65.8594 673.4063,66.1563 C673.4063,66.4063 673.5469,66.6719 673.7656,66.8281 C673.9219,66.9531 674.125,67 674.5313,67 L679.6719,67 C680.4219,67 680.7813,66.7188 680.7813,66.1563 C680.7813,65.875 680.6719,65.625 680.4375,65.4531 C680.2656,65.3281 680.125,65.2969 679.6719,65.2969 L677.9531,65.2969 L677.9531,58.7813 Z " fill="#000000"/><text fill="#000000" font-family="sans-serif" font-size="12" font-style="italic" lengthAdjust="spacing" textLength="75" x="691" y="66.1543">ICustomerID</text><line style="stroke:#A80036;stroke-width:1.5;" x1="663" x2="768" y1="78" y2="78"/><line style="stroke:#A80036;stroke-width:1.5;" x1="663" x2="768" y1="86" y2="86"/><!--MD5=[fa61f9393a6e78a1f0a5db506689f6f2]
class ICustomer--><rect codeLine="5" fill="#FEFECE" filter="url(#f1m3egmbsx55bu)" height="48" id="ICustomer" style="stroke:#A80036;stroke-width:1.5;" width="94" x="507" y="116"/><ellipse cx="522" cy="132" fill="#B4A7E5" rx="11" ry="11" style="stroke:#A80036;stroke-width:1.0;"/><path d="M522.9531,128.7813 L524.6719,128.7813 C525.0625,128.7813 525.25,128.75 525.375,128.6719 C525.6406,128.5156 525.7813,128.2344 525.7813,127.9375 C525.7813,127.6719 525.6719,127.4063 525.4375,127.2344 C525.2656,127.125 525.125,127.0938 524.6719,127.0938 L519.5313,127.0938 C519.0938,127.0938 518.9688,127.1094 518.8125,127.2031 C518.5625,127.3594 518.4063,127.6563 518.4063,127.9375 C518.4063,128.2188 518.5469,128.4688 518.7656,128.6406 C518.9219,128.75 519.1094,128.7813 519.5313,128.7813 L521.25,128.7813 L521.25,135.2969 L519.5313,135.2969 C519.0938,135.2969 518.9688,135.3125 518.8125,135.4219 C518.5625,135.5781 518.4063,135.8594 518.4063,136.1563 C518.4063,136.4063 518.5469,136.6719 518.7656,136.8281 C518.9219,136.9531 519.125,137 519.5313,137 L524.6719,137 C525.4219,137 525.7813,136.7188 525.7813,136.1563 C525.7813,135.875 525.6719,135.625 525.4375,135.4531 C525.2656,135.3281 525.125,135.2969 524.6719,135.2969 L522.9531,135.2969 L522.9531,128.7813 Z " fill="#000000"/><text fill="#000000" font-family="sans-serif" font-size="12" font-style="italic" lengthAdjust="spacing" textLength="62" x="536" y="136.1543">ICustomer</text><line style="stroke:#A80036;stroke-width:1.5;" x1="508" x2="600" y1="148" y2="148"/><line style="stroke:#A80036;stroke-width:1.5;" x1="508" x2="600" y1="156" y2="156"/><!--MD5=[abd28298aa8f2e09a77b60ced88d246d]
class ICustomerRegistry--><rect codeLine="9" fill="#FEFECE" filter="url(#f1m3egmbsx55bu)" height="145.6328" id="ICustomerRegistry" style="stroke:#A80036;stroke-width:1.5;" width="384" x="7" y="7"/><ellipse cx="139.25" cy="23" fill="#B4A7E5" rx="11" ry="11" style="stroke:#A80036;stroke-width:1.0;"/><path d="M140.2031,19.7813 L141.9219,19.7813 C142.3125,19.7813 142.5,19.75 142.625,19.6719 C142.8906,19.5156 143.0313,19.2344 143.0313,18.9375 C143.0313,18.6719 142.9219,18.4063 142.6875,18.2344 C142.5156,18.125 142.375,18.0938 141.9219,18.0938 L136.7813,18.0938 C136.3438,18.0938 136.2188,18.1094 136.0625,18.2031 C135.8125,18.3594 135.6563,18.6563 135.6563,18.9375 C135.6563,19.2188 135.7969,19.4688 136.0156,19.6406 C136.1719,19.75 136.3594,19.7813 136.7813,19.7813 L138.5,19.7813 L138.5,26.2969 L136.7813,26.2969 C136.3438,26.2969 136.2188,26.3125 136.0625,26.4219 C135.8125,26.5781 135.6563,26.8594 135.6563,27.1563 C135.6563,27.4063 135.7969,27.6719 136.0156,27.8281 C136.1719,27.9531 136.375,28 136.7813,28 L141.9219,28 C142.6719,28 143.0313,27.7188 143.0313,27.1563 C143.0313,26.875 142.9219,26.625 142.6875,26.4531 C142.5156,26.3281 142.375,26.2969 141.9219,26.2969 L140.2031,26.2969 L140.2031,19.7813 Z " fill="#000000"/><text fill="#000000" font-family="sans-serif" font-size="12" font-style="italic" lengthAdjust="spacing" textLength="111" x="159.75" y="27.1543">ICustomerRegistry</text><line style="stroke:#A80036;stroke-width:1.5;" x1="8" x2="390" y1="39" y2="39"/><ellipse cx="18" cy="50" rx="3" ry="3" style="stroke:#038048;stroke-width:1.0;fill:none;"/><text fill="#000000" font-family="sans-serif" font-size="11" lengthAdjust="spacing" textLength="275" x="27" y="53.2104">IEnumerable&lt;ICustomer&gt; AllCustomers { get; }</text><line style="stroke:#A80036;stroke-width:1.0;" x1="8" x2="390" y1="59.8047" y2="59.8047"/><ellipse cx="18" cy="70.8047" fill="#84BE84" rx="3" ry="3" style="stroke:#038048;stroke-width:1.0;"/><text fill="#000000" font-family="sans-serif" font-size="11" lengthAdjust="spacing" textLength="260" x="27" y="74.0151">ICustomer FindCustomerById(ICustomerID id);</text><ellipse cx="18" cy="83.6094" fill="#84BE84" rx="3" ry="3" style="stroke:#038048;stroke-width:1.0;"/><text fill="#000000" font-family="sans-serif" font-size="11" lengthAdjust="spacing" textLength="358" x="27" y="86.8198">IEnumerable&lt;ICustomer&gt; FindCustomerByName(string name);</text><ellipse cx="18" cy="96.4141" fill="#84BE84" rx="3" ry="3" style="stroke:#038048;stroke-width:1.0;"/><text fill="#000000" font-family="sans-serif" font-size="11" lengthAdjust="spacing" textLength="354" x="27" y="99.6245">IEnumerable&lt;ICustomer&gt; FindCustomerByEmail(string email);</text><line style="stroke:#A80036;stroke-width:1.0;stroke-dasharray:1.0,2.0;" x1="8" x2="390" y1="106.2188" y2="106.2188"/><ellipse cx="18" cy="117.2188" fill="#84BE84" rx="3" ry="3" style="stroke:#038048;stroke-width:1.0;"/><text fill="#000000" font-family="sans-serif" font-size="11" lengthAdjust="spacing" textLength="256" x="27" y="120.4292">void AddNewCustomer(ICustomer customer);</text><ellipse cx="18" cy="130.0234" fill="#84BE84" rx="3" ry="3" style="stroke:#038048;stroke-width:1.0;"/><text fill="#000000" font-family="sans-serif" font-size="11" lengthAdjust="spacing" textLength="250" x="27" y="133.2339">void UpdateCustomer(ICustomer customer);</text><ellipse cx="18" cy="142.8281" fill="#84BE84" rx="3" ry="3" style="stroke:#038048;stroke-width:1.0;"/><text fill="#000000" font-family="sans-serif" font-size="11" lengthAdjust="spacing" textLength="257" x="27" y="146.0386">void RemoveCustomer(ICustomer customer);</text><!--MD5=[439ab78a1362533498577871f7d71952]
reverse link ICustomer to ICustomerID--><path codeLine="7" d="M613.489,114.3307 C629.281,107.4001 646.273,99.9429 661.731,93.1586 " fill="none" id="ICustomer-backto-ICustomerID" style="stroke:#A80036;stroke-width:1.0;"/><polygon fill="#A80036" points="601.134,119.7531,608.2357,121.0047,612.1224,114.9307,605.0207,113.6791,601.134,119.7531" style="stroke:#A80036;stroke-width:1.0;"/><text fill="#000000" font-family="sans-serif" font-size="13" lengthAdjust="spacing" textLength="8" x="608.9639" y="129.8783">1</text><text fill="#000000" font-family="sans-serif" font-size="13" lengthAdjust="spacing" textLength="8" x="645.9683" y="109.3542">1</text><!--MD5=[184bcaa5b5ba9a8875323b0f09dec378]
link ICustomerRegistry to ICustomer--><path codeLine="21" d="M403.0525,114.512 C403.0525,114.512 468.149,125.5777 493.612,129.9058 " fill="none" id="ICustomerRegistry-ICustomer" style="stroke:#A80036;stroke-width:1.0;"/><polygon fill="#A80036" points="506.74,132.1371,498.5376,126.6854,501.8107,131.2992,497.1969,134.5723,506.74,132.1371" style="stroke:#A80036;stroke-width:1.0;"/><line style="stroke:#A80036;stroke-width:1.0;" x1="501.8107" x2="493.9245" y1="131.2992" y2="129.9587"/><polygon fill="#FFFFFF" points="391.222,112.5023,396.4674,117.4507,403.0525,114.512,397.8072,109.5636,391.222,112.5023" style="stroke:#A80036;stroke-width:1.0;"/><text fill="#000000" font-family="sans-serif" font-size="13" lengthAdjust="spacing" textLength="54" x="422" y="114.0669">contains</text><text fill="#000000" font-family="sans-serif" font-size="13" lengthAdjust="spacing" textLength="8" x="398.8869" y="126.1416">1</text><text fill="#000000" font-family="sans-serif" font-size="13" lengthAdjust="spacing" textLength="9" x="490.1378" y="144.1604">N</text><!--MD5=[662a84e3d6fdde428f7b9120cb884852]
link ICustomerRegistry to ICustomerID--><path codeLine="22" d="M391.215,76.2835 C485.466,74.4516 592.401,72.3732 656.592,71.1255 " fill="none" id="ICustomerRegistry-to-ICustomerID" style="stroke:#A80036;stroke-width:1.0;"/><polygon fill="#A80036" points="661.904,71.0223,652.828,67.1979,656.9049,71.1194,652.9834,75.1964,661.904,71.0223" style="stroke:#A80036;stroke-width:1.0;"/><text fill="#000000" font-family="sans-serif" font-size="13" lengthAdjust="spacing" textLength="50" x="529" y="68.0669">exploits</text><!--MD5=[74076c02e83cd3468cb3ccdf5ae3c174]
@startuml
left to right direction

interface ICustomerID 

interface ICustomer

ICustomer "1" *- - "1" ICustomerID

interface ICustomerRegistry {
    + IEnumerable<ICustomer> AllCustomers { get; }
    - -
    + ICustomer FindCustomerById(ICustomerID id);
    + IEnumerable<ICustomer> FindCustomerByName(string name);
    + IEnumerable<ICustomer> FindCustomerByEmail(string email);
    ..
    + void AddNewCustomer(ICustomer customer);
    + void UpdateCustomer(ICustomer customer);
    + void RemoveCustomer(ICustomer customer);
}

ICustomerRegistry "1" o- -> "N" ICustomer: contains
ICustomerRegistry - -> ICustomerID: exploits
@enduml

PlantUML version 1.2021.7(Sun May 23 12:40:07 UTC 2021)
(GPL source distribution)
Java Runtime: Java(TM) SE Runtime Environment
JVM: Java HotSpot(TM) 64-Bit Server VM
Default Encoding: UTF-8
Language: en
Country: US
--></g></svg>