<?xml version="1.0" encoding="UTF-8" standalone="no"?>
<svg xmlns="http://www.w3.org/2000/svg" xmlns:xlink="http://www.w3.org/1999/xlink" contentScriptType="application/ecmascript" contentStyleType="text/css" height="299px" preserveAspectRatio="none" style="width:1177px;height:299px;background:#FFFFFF;" version="1.1" viewBox="0 0 1177 299" width="1177px" zoomAndPan="magnify"><defs><filter height="300%" id="fanhn5vjbvy0j" width="300%" x="-1" y="-1"><feGaussianBlur result="blurOut" stdDeviation="2.0"/><feColorMatrix in="blurOut" result="blurOut2" type="matrix" values="0 0 0 0 0 0 0 0 0 0 0 0 0 0 0 0 0 0 .4 0"/><feOffset dx="4.0" dy="4.0" in="blurOut2" result="blurOut3"/><feBlend in="SourceGraphic" in2="blurOut3" mode="normal"/></filter></defs><g><!--MD5=[786a416a6ee502ad4922c3f80b87123c]
class ICustomerID--><rect codeLine="3" fill="#FEFECE" filter="url(#fanhn5vjbvy0j)" height="60.8047" id="ICustomerID" style="stroke:#A80036;stroke-width:1.5;" width="146" x="1017" y="103"/><ellipse cx="1049.55" cy="119" fill="#B4A7E5" rx="11" ry="11" style="stroke:#A80036;stroke-width:1.0;"/><path d="M1050.5031,115.7813 L1052.2219,115.7813 C1052.6125,115.7813 1052.8,115.75 1052.925,115.6719 C1053.1906,115.5156 1053.3313,115.2344 1053.3313,114.9375 C1053.3313,114.6719 1053.2219,114.4063 1052.9875,114.2344 C1052.8156,114.125 1052.675,114.0938 1052.2219,114.0938 L1047.0813,114.0938 C1046.6438,114.0938 1046.5188,114.1094 1046.3625,114.2031 C1046.1125,114.3594 1045.9563,114.6563 1045.9563,114.9375 C1045.9563,115.2188 1046.0969,115.4688 1046.3156,115.6406 C1046.4719,115.75 1046.6594,115.7813 1047.0813,115.7813 L1048.8,115.7813 L1048.8,122.2969 L1047.0813,122.2969 C1046.6438,122.2969 1046.5188,122.3125 1046.3625,122.4219 C1046.1125,122.5781 1045.9563,122.8594 1045.9563,123.1563 C1045.9563,123.4063 1046.0969,123.6719 1046.3156,123.8281 C1046.4719,123.9531 1046.675,124 1047.0813,124 L1052.2219,124 C1052.9719,124 1053.3313,123.7188 1053.3313,123.1563 C1053.3313,122.875 1053.2219,122.625 1052.9875,122.4531 C1052.8156,122.3281 1052.675,122.2969 1052.2219,122.2969 L1050.5031,122.2969 L1050.5031,115.7813 Z " fill="#000000"/><text fill="#000000" font-family="sans-serif" font-size="12" font-style="italic" lengthAdjust="spacing" textLength="75" x="1067.45" y="123.1543">ICustomerID</text><line style="stroke:#A80036;stroke-width:1.5;" x1="1018" x2="1162" y1="135" y2="135"/><ellipse cx="1028" cy="146" rx="3" ry="3" style="stroke:#038048;stroke-width:1.0;fill:none;"/><text fill="#000000" font-family="sans-serif" font-size="11" lengthAdjust="spacing" textLength="120" x="1037" y="149.2104">object Value { get; }</text><line style="stroke:#A80036;stroke-width:1.5;" x1="1018" x2="1162" y1="155.8047" y2="155.8047"/><!--MD5=[e3d7270b7761c6964c0b858442a97f99]
class ITaxCode--><rect codeLine="7" fill="#FEFECE" filter="url(#fanhn5vjbvy0j)" height="60.8047" id="ITaxCode" style="stroke:#A80036;stroke-width:1.5;" width="139" x="800" y="7"/><ellipse cx="838.4" cy="23" fill="#B4A7E5" rx="11" ry="11" style="stroke:#A80036;stroke-width:1.0;"/><path d="M839.3531,19.7813 L841.0719,19.7813 C841.4625,19.7813 841.65,19.75 841.775,19.6719 C842.0406,19.5156 842.1813,19.2344 842.1813,18.9375 C842.1813,18.6719 842.0719,18.4063 841.8375,18.2344 C841.6656,18.125 841.525,18.0938 841.0719,18.0938 L835.9313,18.0938 C835.4938,18.0938 835.3688,18.1094 835.2125,18.2031 C834.9625,18.3594 834.8063,18.6563 834.8063,18.9375 C834.8063,19.2188 834.9469,19.4688 835.1656,19.6406 C835.3219,19.75 835.5094,19.7813 835.9313,19.7813 L837.65,19.7813 L837.65,26.2969 L835.9313,26.2969 C835.4938,26.2969 835.3688,26.3125 835.2125,26.4219 C834.9625,26.5781 834.8063,26.8594 834.8063,27.1563 C834.8063,27.4063 834.9469,27.6719 835.1656,27.8281 C835.3219,27.9531 835.525,28 835.9313,28 L841.0719,28 C841.8219,28 842.1813,27.7188 842.1813,27.1563 C842.1813,26.875 842.0719,26.625 841.8375,26.4531 C841.6656,26.3281 841.525,26.2969 841.0719,26.2969 L839.3531,26.2969 L839.3531,19.7813 Z " fill="#000000"/><text fill="#000000" font-family="sans-serif" font-size="12" font-style="italic" lengthAdjust="spacing" textLength="55" x="857.6" y="27.1543">ITaxCode</text><line style="stroke:#A80036;stroke-width:1.5;" x1="801" x2="938" y1="39" y2="39"/><ellipse cx="811" cy="50" rx="3" ry="3" style="stroke:#038048;stroke-width:1.0;fill:none;"/><text fill="#000000" font-family="sans-serif" font-size="11" lengthAdjust="spacing" textLength="113" x="820" y="53.2104">string Code { get; }</text><line style="stroke:#A80036;stroke-width:1.5;" x1="801" x2="938" y1="59.8047" y2="59.8047"/><!--MD5=[3c243d6ef321a9eca4543d7e71690013]
class IVatNumber--><rect codeLine="11" fill="#FEFECE" filter="url(#fanhn5vjbvy0j)" height="60.8047" id="IVatNumber" style="stroke:#A80036;stroke-width:1.5;" width="144" x="797.5" y="103"/><ellipse cx="830.05" cy="119" fill="#B4A7E5" rx="11" ry="11" style="stroke:#A80036;stroke-width:1.0;"/><path d="M831.0031,115.7813 L832.7219,115.7813 C833.1125,115.7813 833.3,115.75 833.425,115.6719 C833.6906,115.5156 833.8313,115.2344 833.8313,114.9375 C833.8313,114.6719 833.7219,114.4063 833.4875,114.2344 C833.3156,114.125 833.175,114.0938 832.7219,114.0938 L827.5813,114.0938 C827.1438,114.0938 827.0188,114.1094 826.8625,114.2031 C826.6125,114.3594 826.4563,114.6563 826.4563,114.9375 C826.4563,115.2188 826.5969,115.4688 826.8156,115.6406 C826.9719,115.75 827.1594,115.7813 827.5813,115.7813 L829.3,115.7813 L829.3,122.2969 L827.5813,122.2969 C827.1438,122.2969 827.0188,122.3125 826.8625,122.4219 C826.6125,122.5781 826.4563,122.8594 826.4563,123.1563 C826.4563,123.4063 826.5969,123.6719 826.8156,123.8281 C826.9719,123.9531 827.175,124 827.5813,124 L832.7219,124 C833.4719,124 833.8313,123.7188 833.8313,123.1563 C833.8313,122.875 833.7219,122.625 833.4875,122.4531 C833.3156,122.3281 833.175,122.2969 832.7219,122.2969 L831.0031,122.2969 L831.0031,115.7813 Z " fill="#000000"/><text fill="#000000" font-family="sans-serif" font-size="12" font-style="italic" lengthAdjust="spacing" textLength="73" x="847.95" y="123.1543">IVatNumber</text><line style="stroke:#A80036;stroke-width:1.5;" x1="798.5" x2="940.5" y1="135" y2="135"/><ellipse cx="808.5" cy="146" rx="3" ry="3" style="stroke:#038048;stroke-width:1.0;fill:none;"/><text fill="#000000" font-family="sans-serif" font-size="11" lengthAdjust="spacing" textLength="118" x="817.5" y="149.2104">uint Number { get; }</text><line style="stroke:#A80036;stroke-width:1.5;" x1="798.5" x2="940.5" y1="155.8047" y2="155.8047"/><!--MD5=[fa61f9393a6e78a1f0a5db506689f6f2]
class ICustomer--><rect codeLine="15" fill="#FEFECE" filter="url(#fanhn5vjbvy0j)" height="86.4141" id="ICustomer" style="stroke:#A80036;stroke-width:1.5;" width="173" x="783" y="199.5"/><ellipse cx="834.25" cy="215.5" fill="#B4A7E5" rx="11" ry="11" style="stroke:#A80036;stroke-width:1.0;"/><path d="M835.2031,212.2813 L836.9219,212.2813 C837.3125,212.2813 837.5,212.25 837.625,212.1719 C837.8906,212.0156 838.0313,211.7344 838.0313,211.4375 C838.0313,211.1719 837.9219,210.9063 837.6875,210.7344 C837.5156,210.625 837.375,210.5938 836.9219,210.5938 L831.7813,210.5938 C831.3438,210.5938 831.2188,210.6094 831.0625,210.7031 C830.8125,210.8594 830.6563,211.1563 830.6563,211.4375 C830.6563,211.7188 830.7969,211.9688 831.0156,212.1406 C831.1719,212.25 831.3594,212.2813 831.7813,212.2813 L833.5,212.2813 L833.5,218.7969 L831.7813,218.7969 C831.3438,218.7969 831.2188,218.8125 831.0625,218.9219 C830.8125,219.0781 830.6563,219.3594 830.6563,219.6563 C830.6563,219.9063 830.7969,220.1719 831.0156,220.3281 C831.1719,220.4531 831.375,220.5 831.7813,220.5 L836.9219,220.5 C837.6719,220.5 838.0313,220.2188 838.0313,219.6563 C838.0313,219.375 837.9219,219.125 837.6875,218.9531 C837.5156,218.8281 837.375,218.7969 836.9219,218.7969 L835.2031,218.7969 L835.2031,212.2813 Z " fill="#000000"/><text fill="#000000" font-family="sans-serif" font-size="12" font-style="italic" lengthAdjust="spacing" textLength="62" x="854.75" y="219.6543">ICustomer</text><line style="stroke:#A80036;stroke-width:1.5;" x1="784" x2="955" y1="231.5" y2="231.5"/><ellipse cx="794" cy="242.5" rx="3" ry="3" style="stroke:#038048;stroke-width:1.0;fill:none;"/><text fill="#000000" font-family="sans-serif" font-size="11" lengthAdjust="spacing" textLength="132" x="803" y="245.7104">ICustomerID Id { get; }</text><ellipse cx="794" cy="255.3047" rx="3" ry="3" style="stroke:#038048;stroke-width:1.0;fill:none;"/><text fill="#000000" font-family="sans-serif" font-size="11" lengthAdjust="spacing" textLength="106" x="803" y="258.5151">string Name { get;</text><text fill="#000000" font-family="sans-serif" font-size="11" font-weight="bold" lengthAdjust="spacing" textLength="26" x="913" y="258.5151">set;</text><text fill="#000000" font-family="sans-serif" font-size="11" lengthAdjust="spacing" textLength="7" x="943" y="258.5151">}</text><ellipse cx="794" cy="268.1094" rx="3" ry="3" style="stroke:#038048;stroke-width:1.0;fill:none;"/><text fill="#000000" font-family="sans-serif" font-size="11" lengthAdjust="spacing" textLength="103" x="803" y="271.3198">string Email { get;</text><text fill="#000000" font-family="sans-serif" font-size="11" font-weight="bold" lengthAdjust="spacing" textLength="26" x="910" y="271.3198">set;</text><text fill="#000000" font-family="sans-serif" font-size="11" lengthAdjust="spacing" textLength="7" x="940" y="271.3198">}</text><line style="stroke:#A80036;stroke-width:1.5;" x1="784" x2="955" y1="277.9141" y2="277.9141"/><!--MD5=[7b600eed81b53faac1bf9a237c19929f]
class ICustomerFactory--><rect codeLine="26" fill="#FEFECE" filter="url(#fanhn5vjbvy0j)" height="107.2188" id="ICustomerFactory" style="stroke:#A80036;stroke-width:1.5;" width="666" x="7" y="128"/><ellipse cx="282.25" cy="144" fill="#B4A7E5" rx="11" ry="11" style="stroke:#A80036;stroke-width:1.0;"/><path d="M283.2031,140.7813 L284.9219,140.7813 C285.3125,140.7813 285.5,140.75 285.625,140.6719 C285.8906,140.5156 286.0313,140.2344 286.0313,139.9375 C286.0313,139.6719 285.9219,139.4063 285.6875,139.2344 C285.5156,139.125 285.375,139.0938 284.9219,139.0938 L279.7813,139.0938 C279.3438,139.0938 279.2188,139.1094 279.0625,139.2031 C278.8125,139.3594 278.6563,139.6563 278.6563,139.9375 C278.6563,140.2188 278.7969,140.4688 279.0156,140.6406 C279.1719,140.75 279.3594,140.7813 279.7813,140.7813 L281.5,140.7813 L281.5,147.2969 L279.7813,147.2969 C279.3438,147.2969 279.2188,147.3125 279.0625,147.4219 C278.8125,147.5781 278.6563,147.8594 278.6563,148.1563 C278.6563,148.4063 278.7969,148.6719 279.0156,148.8281 C279.1719,148.9531 279.375,149 279.7813,149 L284.9219,149 C285.6719,149 286.0313,148.7188 286.0313,148.1563 C286.0313,147.875 285.9219,147.625 285.6875,147.4531 C285.5156,147.3281 285.375,147.2969 284.9219,147.2969 L283.2031,147.2969 L283.2031,140.7813 Z " fill="#000000"/><text fill="#000000" font-family="sans-serif" font-size="12" font-style="italic" lengthAdjust="spacing" textLength="107" x="302.75" y="148.1543">ICustomerFactory</text><line style="stroke:#A80036;stroke-width:1.5;" x1="8" x2="672" y1="160" y2="160"/><ellipse cx="18" cy="171" fill="#84BE84" rx="3" ry="3" style="stroke:#038048;stroke-width:1.0;"/><text fill="#000000" font-family="sans-serif" font-size="11" lengthAdjust="spacing" textLength="547" x="27" y="174.2104">ITaxCode ComputeTaxCode(string name, string surname, DateTime birthDate, string birthPlace)</text><line style="stroke:#A80036;stroke-width:1.0;" x1="8" x2="672" y1="180.8047" y2="180.8047"/><ellipse cx="18" cy="191.8047" fill="#84BE84" rx="3" ry="3" style="stroke:#038048;stroke-width:1.0;"/><text fill="#000000" font-family="sans-serif" font-size="11" lengthAdjust="spacing" textLength="441" x="27" y="195.0151">ICustomer NewCustomerPerson(ITaxCode code, string fullName, string email)</text><ellipse cx="18" cy="204.6094" fill="#84BE84" rx="3" ry="3" style="stroke:#038048;stroke-width:1.0;"/><text fill="#000000" font-family="sans-serif" font-size="11" lengthAdjust="spacing" textLength="640" x="27" y="207.8198">ICustomer NewCustomerPerson(string name, string surname, DateTime birthDate, string birthPlace, string email)</text><line style="stroke:#A80036;stroke-width:1.0;" x1="8" x2="672" y1="214.4141" y2="214.4141"/><ellipse cx="18" cy="225.4141" fill="#84BE84" rx="3" ry="3" style="stroke:#038048;stroke-width:1.0;"/><text fill="#000000" font-family="sans-serif" font-size="11" lengthAdjust="spacing" textLength="470" x="27" y="228.6245">ICustomer NewCustomerCompany(IVatNumber code, string fullName, string email)</text><!--MD5=[439ab78a1362533498577871f7d71952]
reverse link ICustomer to ICustomerID--><path codeLine="21" d="M968.105,193.8093 C988.417,183.677 1009.27,173.273 1027.82,164.021 " fill="none" id="ICustomer-backto-ICustomerID" style="stroke:#A80036;stroke-width:1.0;"/><polygon fill="#A80036" points="956.23,199.7332,963.3846,200.6343,966.9681,194.3767,959.8136,193.4756,956.23,199.7332" style="stroke:#A80036;stroke-width:1.0;"/><text fill="#000000" font-family="sans-serif" font-size="13" lengthAdjust="spacing" textLength="8" x="964.0271" y="208.7573">1</text><text fill="#000000" font-family="sans-serif" font-size="13" lengthAdjust="spacing" textLength="8" x="1006.1704" y="183.9636">1</text><!--MD5=[c7a289b063de30cc44cfdb94b4cca9af]
link IVatNumber to ICustomerID--><path codeLine="23" d="M941.743,133.5 C959.206,133.5 978.149,133.5 996.452,133.5 " fill="none" id="IVatNumber-to-ICustomerID" style="stroke:#A80036;stroke-width:1.0;"/><polygon fill="none" points="996.732,126.5,1016.73,133.5,996.732,140.5,996.732,126.5" style="stroke:#A80036;stroke-width:1.0;"/><!--MD5=[a37e1809a52276e1f0b35a89f656d520]
link ITaxCode to ICustomerID--><path codeLine="24" d="M939.035,67.612 C958.679,76.242 980.371,85.773 1001.011,94.841 " fill="none" id="ITaxCode-to-ICustomerID" style="stroke:#A80036;stroke-width:1.0;"/><polygon fill="none" points="1004.085,88.546,1019.58,103,998.454,101.364,1004.085,88.546" style="stroke:#A80036;stroke-width:1.0;"/><!--MD5=[8fffdea2f218f0aabbdb0d05f276d04e]
link ICustomerFactory to IVatNumber--><path codeLine="35" d="M673.203,151.271 C717.405,147.249 758.852,143.477 792.092,140.453 " fill="none" id="ICustomerFactory-to-IVatNumber" style="stroke:#A80036;stroke-width:1.0;"/><polygon fill="#A80036" points="797.356,139.974,788.0307,136.8055,792.3765,140.4268,788.7552,144.7726,797.356,139.974" style="stroke:#A80036;stroke-width:1.0;"/><text fill="#000000" font-family="sans-serif" font-size="13" lengthAdjust="spacing" textLength="48" x="704" y="140.5669">creates</text><!--MD5=[4925f6064f1670d57e2a6a86f921511e]
link ICustomerFactory to ICustomer--><path codeLine="36" d="M673.203,219.9159 C711.185,224.3081 747.133,228.4651 777.587,231.9869 " fill="none" id="ICustomerFactory-to-ICustomer" style="stroke:#A80036;stroke-width:1.0;"/><polygon fill="#A80036" points="782.817,232.5916,774.336,227.5843,777.8501,232.0173,773.4171,235.5314,782.817,232.5916" style="stroke:#A80036;stroke-width:1.0;"/><text fill="#000000" font-family="sans-serif" font-size="13" lengthAdjust="spacing" textLength="48" x="704" y="219.5669">creates</text><!--MD5=[9fffcb8c51f0fb331b282528fe135f5a]
@startuml
left to right direction

interface ICustomerID {
    + object Value { get; }
}

interface ITaxCode {
    + string Code { get; }
}

interface IVatNumber {
    + uint Number { get; }
}

interface ICustomer {
    + ICustomerID Id { get; }
    + string Name { get; **set;** }
    + string Email { get; **set;** }
}

ICustomer "1" *- - "1" ICustomerID

IVatNumber - -|> ICustomerID
ITaxCode - -|> ICustomerID

interface ICustomerFactory {
    + ITaxCode ComputeTaxCode(string name, string surname, DateTime birthDate, string birthPlace)
    - -
    + ICustomer NewCustomerPerson(ITaxCode code, string fullName, string email)
    + ICustomer NewCustomerPerson(string name, string surname, DateTime birthDate, string birthPlace, string email)
    - -
    + ICustomer NewCustomerCompany(IVatNumber code, string fullName, string email)
}

ICustomerFactory - -> IVatNumber: creates
ICustomerFactory - -> ICustomer: creates
@enduml

PlantUML version 1.2021.7(Sun May 23 12:40:07 UTC 2021)
(GPL source distribution)
Java Runtime: Java(TM) SE Runtime Environment
JVM: Java HotSpot(TM) 64-Bit Server VM
Default Encoding: UTF-8
Language: en
Country: US
--></g></svg>