<?xml version="1.0" encoding="UTF-8" standalone="no"?><svg xmlns="http://www.w3.org/2000/svg" xmlns:xlink="http://www.w3.org/1999/xlink" contentScriptType="application/ecmascript" contentStyleType="text/css" height="202px" preserveAspectRatio="none" style="width:340px;height:202px;" version="1.1" viewBox="0 0 340 202" width="340px" zoomAndPan="magnify"><defs><filter height="300%" id="fn4wzwumepm5e" width="300%" x="-1" y="-1"><feGaussianBlur result="blurOut" stdDeviation="2.0"/><feColorMatrix in="blurOut" result="blurOut2" type="matrix" values="0 0 0 0 0 0 0 0 0 0 0 0 0 0 0 0 0 0 .4 0"/><feOffset dx="4.0" dy="4.0" in="blurOut2" result="blurOut3"/><feBlend in="SourceGraphic" in2="blurOut3" mode="normal"/></filter></defs><g><!--MD5=[786a416a6ee502ad4922c3f80b87123c]
class ICustomerID--><rect codeLine="1" fill="#FEFECE" filter="url(#fn4wzwumepm5e)" height="60.8047" id="ICustomerID" style="stroke:#A80036;stroke-width:1.5;" width="143" x="93.5" y="128"/><ellipse cx="124.25" cy="144" fill="#B4A7E5" rx="11" ry="11" style="stroke:#A80036;stroke-width:1.0;"/><path d="M120.1719,139.7656 L120.1719,137.6094 L127.5625,137.6094 L127.5625,139.7656 L125.0938,139.7656 L125.0938,147.8438 L127.5625,147.8438 L127.5625,150 L120.1719,150 L120.1719,147.8438 L122.6406,147.8438 L122.6406,139.7656 L120.1719,139.7656 Z " fill="#000000"/><text fill="#000000" font-family="sans-serif" font-size="12" font-style="italic" lengthAdjust="spacing" textLength="76" x="141.75" y="148.1543">ICustomerID</text><line style="stroke:#A80036;stroke-width:1.5;" x1="94.5" x2="235.5" y1="160" y2="160"/><ellipse cx="104.5" cy="171" fill="none" rx="3" ry="3" style="stroke:#038048;stroke-width:1.0;"/><text fill="#000000" font-family="sans-serif" font-size="11" lengthAdjust="spacing" textLength="117" x="113.5" y="174.2104">object Value { get; }</text><line style="stroke:#A80036;stroke-width:1.5;" x1="94.5" x2="235.5" y1="180.8047" y2="180.8047"/><!--MD5=[e3d7270b7761c6964c0b858442a97f99]
class ITaxCode--><rect codeLine="5" fill="#FEFECE" filter="url(#fn4wzwumepm5e)" height="60.8047" id="ITaxCode" style="stroke:#A80036;stroke-width:1.5;" width="140" x="7" y="7"/><ellipse cx="44.5" cy="23" fill="#B4A7E5" rx="11" ry="11" style="stroke:#A80036;stroke-width:1.0;"/><path d="M40.4219,18.7656 L40.4219,16.6094 L47.8125,16.6094 L47.8125,18.7656 L45.3438,18.7656 L45.3438,26.8438 L47.8125,26.8438 L47.8125,29 L40.4219,29 L40.4219,26.8438 L42.8906,26.8438 L42.8906,18.7656 L40.4219,18.7656 Z " fill="#000000"/><text fill="#000000" font-family="sans-serif" font-size="12" font-style="italic" lengthAdjust="spacing" textLength="58" x="63.5" y="27.1543">ITaxCode</text><line style="stroke:#A80036;stroke-width:1.5;" x1="8" x2="146" y1="39" y2="39"/><ellipse cx="18" cy="50" fill="none" rx="3" ry="3" style="stroke:#038048;stroke-width:1.0;"/><text fill="#000000" font-family="sans-serif" font-size="11" lengthAdjust="spacing" textLength="114" x="27" y="53.2104">string Code { get; }</text><line style="stroke:#A80036;stroke-width:1.5;" x1="8" x2="146" y1="59.8047" y2="59.8047"/><!--MD5=[3c243d6ef321a9eca4543d7e71690013]
class IVatNumber--><rect codeLine="9" fill="#FEFECE" filter="url(#fn4wzwumepm5e)" height="60.8047" id="IVatNumber" style="stroke:#A80036;stroke-width:1.5;" width="144" x="182" y="7"/><ellipse cx="214.1" cy="23" fill="#B4A7E5" rx="11" ry="11" style="stroke:#A80036;stroke-width:1.0;"/><path d="M210.0219,18.7656 L210.0219,16.6094 L217.4125,16.6094 L217.4125,18.7656 L214.9438,18.7656 L214.9438,26.8438 L217.4125,26.8438 L217.4125,29 L210.0219,29 L210.0219,26.8438 L212.4906,26.8438 L212.4906,18.7656 L210.0219,18.7656 Z " fill="#000000"/><text fill="#000000" font-family="sans-serif" font-size="12" font-style="italic" lengthAdjust="spacing" textLength="74" x="231.9" y="27.1543">IVatNumber</text><line style="stroke:#A80036;stroke-width:1.5;" x1="183" x2="325" y1="39" y2="39"/><ellipse cx="193" cy="50" fill="none" rx="3" ry="3" style="stroke:#038048;stroke-width:1.0;"/><text fill="#000000" font-family="sans-serif" font-size="11" lengthAdjust="spacing" textLength="118" x="202" y="53.2104">uint Number { get; }</text><line style="stroke:#A80036;stroke-width:1.5;" x1="183" x2="325" y1="59.8047" y2="59.8047"/><!--MD5=[c7a289b063de30cc44cfdb94b4cca9af]
link IVatNumber to ICustomerID--><path codeLine="13" d="M231.77,68.22 C222,81.28 210.3,96.93 199.45,111.44 " fill="none" id="IVatNumber-to-ICustomerID" style="stroke:#A80036;stroke-width:1.0;"/><polygon fill="none" points="204.84,115.92,187.25,127.74,193.63,107.54,204.84,115.92" style="stroke:#A80036;stroke-width:1.0;"/><!--MD5=[a37e1809a52276e1f0b35a89f656d520]
link ITaxCode to ICustomerID--><path codeLine="14" d="M98.98,68.22 C108.64,81.28 120.21,96.93 130.94,111.44 " fill="none" id="ITaxCode-to-ICustomerID" style="stroke:#A80036;stroke-width:1.0;"/><polygon fill="none" points="136.73,107.5,143,127.74,125.48,115.83,136.73,107.5" style="stroke:#A80036;stroke-width:1.0;"/><!--MD5=[91dea30baa9bfed631f08689640bc0eb]
@startuml
interface ICustomerID {
    + object Value { get; }
}

interface ITaxCode {
    + string Code { get; }
}

interface IVatNumber {
    + uint Number { get; }
}

IVatNumber - -|> ICustomerID
ITaxCode - -|> ICustomerID
@enduml

PlantUML version 1.2021.00(Sun Jan 10 11:25:05 CET 2021)
(GPL source distribution)
Java Runtime: OpenJDK Runtime Environment
JVM: OpenJDK 64-Bit Server VM
Default Encoding: UTF-8
Language: it
Country: IT
--></g></svg>