<?xml version="1.0" encoding="UTF-8" standalone="no"?>
<svg xmlns="http://www.w3.org/2000/svg" xmlns:xlink="http://www.w3.org/1999/xlink" contentScriptType="application/ecmascript" contentStyleType="text/css" height="245px" preserveAspectRatio="none" style="width:1131px;height:245px;background:#FFFFFF;" version="1.1" viewBox="0 0 1131 245" width="1131px" zoomAndPan="magnify"><defs><filter height="300%" id="fzid0fhtaxext" width="300%" x="-1" y="-1"><feGaussianBlur result="blurOut" stdDeviation="2.0"/><feColorMatrix in="blurOut" result="blurOut2" type="matrix" values="0 0 0 0 0 0 0 0 0 0 0 0 0 0 0 0 0 0 .4 0"/><feOffset dx="4.0" dy="4.0" in="blurOut2" result="blurOut3"/><feBlend in="SourceGraphic" in2="blurOut3" mode="normal"/></filter></defs><g><!--MD5=[b5d7e04e25183738444792ef1475bf0c]
class IOrderManagementService--><rect codeLine="3" fill="#FEFECE" filter="url(#fzid0fhtaxext)" height="60.8047" id="IOrderManagementService" style="stroke:#A80036;stroke-width:1.5;" width="210" x="7" y="89.5"/><ellipse cx="29.65" cy="105.5" fill="#B4A7E5" rx="11" ry="11" style="stroke:#A80036;stroke-width:1.0;"/><path d="M30.6031,102.2813 L32.3219,102.2813 C32.7125,102.2813 32.9,102.25 33.025,102.1719 C33.2906,102.0156 33.4313,101.7344 33.4313,101.4375 C33.4313,101.1719 33.3219,100.9063 33.0875,100.7344 C32.9156,100.625 32.775,100.5938 32.3219,100.5938 L27.1813,100.5938 C26.7438,100.5938 26.6188,100.6094 26.4625,100.7031 C26.2125,100.8594 26.0563,101.1563 26.0563,101.4375 C26.0563,101.7188 26.1969,101.9688 26.4156,102.1406 C26.5719,102.25 26.7594,102.2813 27.1813,102.2813 L28.9,102.2813 L28.9,108.7969 L27.1813,108.7969 C26.7438,108.7969 26.6188,108.8125 26.4625,108.9219 C26.2125,109.0781 26.0563,109.3594 26.0563,109.6563 C26.0563,109.9063 26.1969,110.1719 26.4156,110.3281 C26.5719,110.4531 26.775,110.5 27.1813,110.5 L32.3219,110.5 C33.0719,110.5 33.4313,110.2188 33.4313,109.6563 C33.4313,109.375 33.3219,109.125 33.0875,108.9531 C32.9156,108.8281 32.775,108.7969 32.3219,108.7969 L30.6031,108.7969 L30.6031,102.2813 Z " fill="#000000"/><text fill="#000000" font-family="sans-serif" font-size="12" font-style="italic" lengthAdjust="spacing" textLength="161" x="45.35" y="109.6543">IOrderManagementService</text><line style="stroke:#A80036;stroke-width:1.5;" x1="8" x2="216" y1="121.5" y2="121.5"/><line style="stroke:#A80036;stroke-width:1.5;" x1="8" x2="216" y1="129.5" y2="129.5"/><ellipse cx="18" cy="140.5" fill="#84BE84" rx="3" ry="3" style="stroke:#038048;stroke-width:1.0;"/><text fill="#000000" font-family="sans-serif" font-size="11" lengthAdjust="spacing" textLength="184" x="27" y="143.7104">void PerformOrder(IOrder order);</text><!--MD5=[a1d1fcc607de700ad4a771f958439446]
class IOrder--><rect codeLine="8" fill="#FEFECE" filter="url(#fzid0fhtaxext)" height="99.2188" id="IOrder" style="stroke:#A80036;stroke-width:1.5;" width="313" x="494" y="74.5"/><ellipse cx="627.25" cy="90.5" fill="#B4A7E5" rx="11" ry="11" style="stroke:#A80036;stroke-width:1.0;"/><path d="M628.2031,87.2813 L629.9219,87.2813 C630.3125,87.2813 630.5,87.25 630.625,87.1719 C630.8906,87.0156 631.0313,86.7344 631.0313,86.4375 C631.0313,86.1719 630.9219,85.9063 630.6875,85.7344 C630.5156,85.625 630.375,85.5938 629.9219,85.5938 L624.7813,85.5938 C624.3438,85.5938 624.2188,85.6094 624.0625,85.7031 C623.8125,85.8594 623.6563,86.1563 623.6563,86.4375 C623.6563,86.7188 623.7969,86.9688 624.0156,87.1406 C624.1719,87.25 624.3594,87.2813 624.7813,87.2813 L626.5,87.2813 L626.5,93.7969 L624.7813,93.7969 C624.3438,93.7969 624.2188,93.8125 624.0625,93.9219 C623.8125,94.0781 623.6563,94.3594 623.6563,94.6563 C623.6563,94.9063 623.7969,95.1719 624.0156,95.3281 C624.1719,95.4531 624.375,95.5 624.7813,95.5 L629.9219,95.5 C630.6719,95.5 631.0313,95.2188 631.0313,94.6563 C631.0313,94.375 630.9219,94.125 630.6875,93.9531 C630.5156,93.8281 630.375,93.7969 629.9219,93.7969 L628.2031,93.7969 L628.2031,87.2813 Z " fill="#000000"/><text fill="#000000" font-family="sans-serif" font-size="12" font-style="italic" lengthAdjust="spacing" textLength="38" x="647.75" y="94.6543">IOrder</text><line style="stroke:#A80036;stroke-width:1.5;" x1="495" x2="806" y1="106.5" y2="106.5"/><ellipse cx="505" cy="117.5" rx="3" ry="3" style="stroke:#038048;stroke-width:1.0;fill:none;"/><text fill="#000000" font-family="sans-serif" font-size="11" lengthAdjust="spacing" textLength="109" x="514" y="120.7104">IOrderID Id { get; }</text><ellipse cx="505" cy="130.3047" rx="3" ry="3" style="stroke:#038048;stroke-width:1.0;fill:none;"/><text fill="#000000" font-family="sans-serif" font-size="11" lengthAdjust="spacing" textLength="194" x="514" y="133.5151">ICustomer Customer { get; set;  }</text><ellipse cx="505" cy="143.1094" rx="3" ry="3" style="stroke:#038048;stroke-width:1.0;fill:none;"/><text fill="#000000" font-family="sans-serif" font-size="11" lengthAdjust="spacing" textLength="202" x="514" y="146.3198">DateTime Timestamp { get; set;  }</text><ellipse cx="505" cy="155.9141" rx="3" ry="3" style="stroke:#038048;stroke-width:1.0;fill:none;"/><text fill="#000000" font-family="sans-serif" font-size="11" lengthAdjust="spacing" textLength="287" x="514" y="159.1245">IDictionary&lt;IProduct, ulong&gt; Amounts { get; set; }</text><line style="stroke:#A80036;stroke-width:1.5;" x1="495" x2="806" y1="165.7188" y2="165.7188"/><!--MD5=[1bef9e85998b52a9b4d4dca4f1f52f22]
class IOrderID--><rect codeLine="16" fill="#FEFECE" filter="url(#fzid0fhtaxext)" height="48" id="IOrderID" style="stroke:#A80036;stroke-width:1.5;" width="83" x="873.5" y="17"/><ellipse cx="888.5" cy="33" fill="#B4A7E5" rx="11" ry="11" style="stroke:#A80036;stroke-width:1.0;"/><path d="M889.4531,29.7813 L891.1719,29.7813 C891.5625,29.7813 891.75,29.75 891.875,29.6719 C892.1406,29.5156 892.2813,29.2344 892.2813,28.9375 C892.2813,28.6719 892.1719,28.4063 891.9375,28.2344 C891.7656,28.125 891.625,28.0938 891.1719,28.0938 L886.0313,28.0938 C885.5938,28.0938 885.4688,28.1094 885.3125,28.2031 C885.0625,28.3594 884.9063,28.6563 884.9063,28.9375 C884.9063,29.2188 885.0469,29.4688 885.2656,29.6406 C885.4219,29.75 885.6094,29.7813 886.0313,29.7813 L887.75,29.7813 L887.75,36.2969 L886.0313,36.2969 C885.5938,36.2969 885.4688,36.3125 885.3125,36.4219 C885.0625,36.5781 884.9063,36.8594 884.9063,37.1563 C884.9063,37.4063 885.0469,37.6719 885.2656,37.8281 C885.4219,37.9531 885.625,38 886.0313,38 L891.1719,38 C891.9219,38 892.2813,37.7188 892.2813,37.1563 C892.2813,36.875 892.1719,36.625 891.9375,36.4531 C891.7656,36.3281 891.625,36.2969 891.1719,36.2969 L889.4531,36.2969 L889.4531,29.7813 Z " fill="#000000"/><text fill="#000000" font-family="sans-serif" font-size="12" font-style="italic" lengthAdjust="spacing" textLength="51" x="902.5" y="37.1543">IOrderID</text><line style="stroke:#A80036;stroke-width:1.5;" x1="874.5" x2="955.5" y1="49" y2="49"/><line style="stroke:#A80036;stroke-width:1.5;" x1="874.5" x2="955.5" y1="57" y2="57"/><!--MD5=[fa61f9393a6e78a1f0a5db506689f6f2]
class ICustomer--><rect codeLine="18" fill="#FEFECE" filter="url(#fzid0fhtaxext)" height="48" id="ICustomer" style="stroke:#A80036;stroke-width:1.5;" width="94" x="868" y="100"/><ellipse cx="883" cy="116" fill="#B4A7E5" rx="11" ry="11" style="stroke:#A80036;stroke-width:1.0;"/><path d="M883.9531,112.7813 L885.6719,112.7813 C886.0625,112.7813 886.25,112.75 886.375,112.6719 C886.6406,112.5156 886.7813,112.2344 886.7813,111.9375 C886.7813,111.6719 886.6719,111.4063 886.4375,111.2344 C886.2656,111.125 886.125,111.0938 885.6719,111.0938 L880.5313,111.0938 C880.0938,111.0938 879.9688,111.1094 879.8125,111.2031 C879.5625,111.3594 879.4063,111.6563 879.4063,111.9375 C879.4063,112.2188 879.5469,112.4688 879.7656,112.6406 C879.9219,112.75 880.1094,112.7813 880.5313,112.7813 L882.25,112.7813 L882.25,119.2969 L880.5313,119.2969 C880.0938,119.2969 879.9688,119.3125 879.8125,119.4219 C879.5625,119.5781 879.4063,119.8594 879.4063,120.1563 C879.4063,120.4063 879.5469,120.6719 879.7656,120.8281 C879.9219,120.9531 880.125,121 880.5313,121 L885.6719,121 C886.4219,121 886.7813,120.7188 886.7813,120.1563 C886.7813,119.875 886.6719,119.625 886.4375,119.4531 C886.2656,119.3281 886.125,119.2969 885.6719,119.2969 L883.9531,119.2969 L883.9531,112.7813 Z " fill="#000000"/><text fill="#000000" font-family="sans-serif" font-size="12" font-style="italic" lengthAdjust="spacing" textLength="62" x="897" y="120.1543">ICustomer</text><line style="stroke:#A80036;stroke-width:1.5;" x1="869" x2="961" y1="132" y2="132"/><line style="stroke:#A80036;stroke-width:1.5;" x1="869" x2="961" y1="140" y2="140"/><!--MD5=[b3b57622c9f990c5746d624077ea32c7]
class IProduct--><rect codeLine="20" fill="#FEFECE" filter="url(#fzid0fhtaxext)" height="48" id="IProduct" style="stroke:#A80036;stroke-width:1.5;" width="83" x="873.5" y="183"/><ellipse cx="888.5" cy="199" fill="#B4A7E5" rx="11" ry="11" style="stroke:#A80036;stroke-width:1.0;"/><path d="M889.4531,195.7813 L891.1719,195.7813 C891.5625,195.7813 891.75,195.75 891.875,195.6719 C892.1406,195.5156 892.2813,195.2344 892.2813,194.9375 C892.2813,194.6719 892.1719,194.4063 891.9375,194.2344 C891.7656,194.125 891.625,194.0938 891.1719,194.0938 L886.0313,194.0938 C885.5938,194.0938 885.4688,194.1094 885.3125,194.2031 C885.0625,194.3594 884.9063,194.6563 884.9063,194.9375 C884.9063,195.2188 885.0469,195.4688 885.2656,195.6406 C885.4219,195.75 885.6094,195.7813 886.0313,195.7813 L887.75,195.7813 L887.75,202.2969 L886.0313,202.2969 C885.5938,202.2969 885.4688,202.3125 885.3125,202.4219 C885.0625,202.5781 884.9063,202.8594 884.9063,203.1563 C884.9063,203.4063 885.0469,203.6719 885.2656,203.8281 C885.4219,203.9531 885.625,204 886.0313,204 L891.1719,204 C891.9219,204 892.2813,203.7188 892.2813,203.1563 C892.2813,202.875 892.1719,202.625 891.9375,202.4531 C891.7656,202.3281 891.625,202.2969 891.1719,202.2969 L889.4531,202.2969 L889.4531,195.7813 Z " fill="#000000"/><text fill="#000000" font-family="sans-serif" font-size="12" font-style="italic" lengthAdjust="spacing" textLength="51" x="902.5" y="203.1543">IProduct</text><line style="stroke:#A80036;stroke-width:1.5;" x1="874.5" x2="955.5" y1="215" y2="215"/><line style="stroke:#A80036;stroke-width:1.5;" x1="874.5" x2="955.5" y1="223" y2="223"/><!--MD5=[3928dede6467c29e1e8c3f20d2d7236c]
class IOrderStore--><rect codeLine="22" fill="#FEFECE" filter="url(#fzid0fhtaxext)" height="48" id="IOrderStore" style="stroke:#A80036;stroke-width:1.5;" width="102" x="331" y="7"/><ellipse cx="346" cy="23" fill="#B4A7E5" rx="11" ry="11" style="stroke:#A80036;stroke-width:1.0;"/><path d="M346.9531,19.7813 L348.6719,19.7813 C349.0625,19.7813 349.25,19.75 349.375,19.6719 C349.6406,19.5156 349.7813,19.2344 349.7813,18.9375 C349.7813,18.6719 349.6719,18.4063 349.4375,18.2344 C349.2656,18.125 349.125,18.0938 348.6719,18.0938 L343.5313,18.0938 C343.0938,18.0938 342.9688,18.1094 342.8125,18.2031 C342.5625,18.3594 342.4063,18.6563 342.4063,18.9375 C342.4063,19.2188 342.5469,19.4688 342.7656,19.6406 C342.9219,19.75 343.1094,19.7813 343.5313,19.7813 L345.25,19.7813 L345.25,26.2969 L343.5313,26.2969 C343.0938,26.2969 342.9688,26.3125 342.8125,26.4219 C342.5625,26.5781 342.4063,26.8594 342.4063,27.1563 C342.4063,27.4063 342.5469,27.6719 342.7656,27.8281 C342.9219,27.9531 343.125,28 343.5313,28 L348.6719,28 C349.4219,28 349.7813,27.7188 349.7813,27.1563 C349.7813,26.875 349.6719,26.625 349.4375,26.4531 C349.2656,26.3281 349.125,26.2969 348.6719,26.2969 L346.9531,26.2969 L346.9531,19.7813 Z " fill="#000000"/><text fill="#000000" font-family="sans-serif" font-size="12" font-style="italic" lengthAdjust="spacing" textLength="70" x="360" y="27.1543">IOrderStore</text><line style="stroke:#A80036;stroke-width:1.5;" x1="332" x2="432" y1="39" y2="39"/><line style="stroke:#A80036;stroke-width:1.5;" x1="332" x2="432" y1="47" y2="47"/><path d="M339,90.5 L339,115.6328 A0,0 0 0 0 339,115.6328 L425,115.6328 A0,0 0 0 0 425,115.6328 L425,100.5 L415,90.5 L386,90.5 L382,55.108 L378,90.5 L339,90.5 A0,0 0 0 0 339,90.5 " fill="#FBFB77" filter="url(#fzid0fhtaxext)" style="stroke:#A80036;stroke-width:1.0;"/><path d="M415,90.5 L415,100.5 L425,100.5 L415,90.5 " fill="#FBFB77" style="stroke:#A80036;stroke-width:1.0;"/><text fill="#000000" font-family="sans-serif" font-size="13" lengthAdjust="spacing" textLength="65" x="345" y="107.5669">repository</text><path d="M621.5,14.5 L621.5,39.6328 A0,0 0 0 0 621.5,39.6328 L646.5,39.6328 L650.5,74.363 L654.5,39.6328 L679.5,39.6328 A0,0 0 0 0 679.5,39.6328 L679.5,24.5 L669.5,14.5 L621.5,14.5 A0,0 0 0 0 621.5,14.5 " fill="#FBFB77" filter="url(#fzid0fhtaxext)" style="stroke:#A80036;stroke-width:1.0;"/><path d="M669.5,14.5 L669.5,24.5 L679.5,24.5 L669.5,14.5 " fill="#FBFB77" style="stroke:#A80036;stroke-width:1.0;"/><text fill="#000000" font-family="sans-serif" font-size="13" lengthAdjust="spacing" textLength="37" x="627.5" y="31.5669">entity</text><path d="M1023,28.5 L1023,37 L956.856,41 L1023,45 L1023,53.6328 A0,0 0 0 0 1023,53.6328 L1122,53.6328 A0,0 0 0 0 1122,53.6328 L1122,38.5 L1112,28.5 L1023,28.5 A0,0 0 0 0 1023,28.5 " fill="#FBFB77" filter="url(#fzid0fhtaxext)" style="stroke:#A80036;stroke-width:1.0;"/><path d="M1112,28.5 L1112,38.5 L1122,38.5 L1112,28.5 " fill="#FBFB77" style="stroke:#A80036;stroke-width:1.0;"/><text fill="#000000" font-family="sans-serif" font-size="13" lengthAdjust="spacing" textLength="78" x="1029" y="45.5669">value object</text><path d="M1043.5,194.5 L1043.5,203 L956.856,207 L1043.5,211 L1043.5,219.6328 A0,0 0 0 0 1043.5,219.6328 L1101.5,219.6328 A0,0 0 0 0 1101.5,219.6328 L1101.5,204.5 L1091.5,194.5 L1043.5,194.5 A0,0 0 0 0 1043.5,194.5 " fill="#FBFB77" filter="url(#fzid0fhtaxext)" style="stroke:#A80036;stroke-width:1.0;"/><path d="M1091.5,194.5 L1091.5,204.5 L1101.5,204.5 L1091.5,194.5 " fill="#FBFB77" style="stroke:#A80036;stroke-width:1.0;"/><text fill="#000000" font-family="sans-serif" font-size="13" lengthAdjust="spacing" textLength="37" x="1049.5" y="211.5669">entity</text><path d="M1043.5,111.5 L1043.5,120 L962.234,124 L1043.5,128 L1043.5,136.6328 A0,0 0 0 0 1043.5,136.6328 L1101.5,136.6328 A0,0 0 0 0 1101.5,136.6328 L1101.5,121.5 L1091.5,111.5 L1043.5,111.5 A0,0 0 0 0 1043.5,111.5 " fill="#FBFB77" filter="url(#fzid0fhtaxext)" style="stroke:#A80036;stroke-width:1.0;"/><path d="M1091.5,111.5 L1091.5,121.5 L1101.5,121.5 L1091.5,111.5 " fill="#FBFB77" style="stroke:#A80036;stroke-width:1.0;"/><text fill="#000000" font-family="sans-serif" font-size="13" lengthAdjust="spacing" textLength="37" x="1049.5" y="128.5669">entity</text><!--MD5=[f5fd738face01470bdbf6a9b4239f173]
reverse link IOrder to IOrderID--><path codeLine="24" d="M819.69,70.82 C839.475,64.564 858.041,58.694 873.38,53.844 " fill="none" id="IOrder-backto-IOrderID" style="stroke:#A80036;stroke-width:1.0;"/><polygon fill="#A80036" points="807.231,74.759,814.1577,76.7642,818.6728,71.1416,811.7461,69.1364,807.231,74.759" style="stroke:#A80036;stroke-width:1.0;"/><text fill="#000000" font-family="sans-serif" font-size="13" lengthAdjust="spacing" textLength="8" x="815.0164" y="84.802">1</text><text fill="#000000" font-family="sans-serif" font-size="13" lengthAdjust="spacing" textLength="8" x="857.5391" y="69.4189">1</text><!--MD5=[cdd6829bdc084dbb2f9bbe9d3423f6ee]
reverse link IOrder to ICustomer--><path codeLine="25" d="M820.293,124 C837.585,124 853.928,124 867.976,124 " fill="none" id="IOrder-backto-ICustomer" style="stroke:#A80036;stroke-width:1.0;"/><polygon fill="#A80036" points="807.231,124,813.231,128,819.231,124,813.231,120,807.231,124" style="stroke:#A80036;stroke-width:1.0;"/><text fill="#000000" font-family="sans-serif" font-size="13" lengthAdjust="spacing" textLength="8" x="815.0164" y="136.4281">1</text><text fill="#000000" font-family="sans-serif" font-size="13" lengthAdjust="spacing" textLength="8" x="851.8441" y="137.2728">1</text><!--MD5=[b02b04bc4fee36ccd70e6bb6bb29ffc7]
reverse link IOrder to IProduct--><path codeLine="26" d="M819.69,177.1801 C839.475,183.436 858.041,189.3064 873.38,194.1564 " fill="none" id="IOrder-backto-IProduct" style="stroke:#A80036;stroke-width:1.0;"/><polygon fill="#A80036" points="807.231,173.2407,811.7462,178.8632,818.6728,176.8579,814.1577,171.2354,807.231,173.2407" style="stroke:#A80036;stroke-width:1.0;"/><text fill="#000000" font-family="sans-serif" font-size="13" lengthAdjust="spacing" textLength="8" x="814.9814" y="191.1545">1</text><text fill="#000000" font-family="sans-serif" font-size="13" lengthAdjust="spacing" textLength="9" x="856.4531" y="205.3163">N</text><!--MD5=[0d7f306251ce4b9f9b71df5fad3bbcbb]
reverse link IOrderStore to IOrder--><path codeLine="27" d="M445.419,52.782 C464.28,59.364 485.811,66.878 507.65,74.499 " fill="none" id="IOrderStore-backto-IOrder" style="stroke:#A80036;stroke-width:1.0;"/><polygon fill="#A80036" points="433.127,48.493,437.4742,54.2464,444.4571,52.4464,440.1098,46.693,433.127,48.493" style="stroke:#A80036;stroke-width:1.0;"/><text fill="#000000" font-family="sans-serif" font-size="13" lengthAdjust="spacing" textLength="8" x="440.8792" y="64.0839">1</text><text fill="#000000" font-family="sans-serif" font-size="13" lengthAdjust="spacing" textLength="9" x="477.9289" y="63.5441">N</text><!--MD5=[9dc2a9f536e8529b105043f5c6cb4007]
link IOrderManagementService to IOrder--><path codeLine="29" d="M217.21,137.2934 C253.154,142.4715 293.743,147.4485 331,150 C376.227,153.0974 387.748,152.7075 433,150 C451.048,148.9202 469.897,147.3383 488.621,145.4793 " fill="none" id="IOrderManagementService-to-IOrder" style="stroke:#A80036;stroke-width:1.0;stroke-dasharray:7.0,7.0;"/><polygon fill="#A80036" points="493.897,144.9478,484.5412,141.8705,488.9222,145.4492,485.3435,149.8302,493.897,144.9478" style="stroke:#A80036;stroke-width:1.0;"/><text fill="#000000" font-family="sans-serif" font-size="13" lengthAdjust="spacing" textLength="50" x="357" y="146.0669">handles</text><!--MD5=[931e8a28f33e3c8c641a6bab352f7487]
link IOrderManagementService to IOrderStore--><path codeLine="30" d="M204.855,89.496 C245.005,76.163 290.774,60.963 325.593,49.4 " fill="none" id="IOrderManagementService-to-IOrderStore" style="stroke:#A80036;stroke-width:1.0;stroke-dasharray:7.0,7.0;"/><polygon fill="#A80036" points="330.649,47.721,320.8471,46.7608,325.9037,49.2966,323.368,54.3532,330.649,47.721" style="stroke:#A80036;stroke-width:1.0;"/><text fill="#000000" font-family="sans-serif" font-size="13" lengthAdjust="spacing" textLength="52" x="248" y="55.0669">updates</text><!--MD5=[aa467ebc6e8bdc9b04c293fb24bb1568]
@startuml
left to right direction

interface IOrderManagementService
{
    + void PerformOrder(IOrder order);
}

interface IOrder
{
    + IOrderID Id { get; }
    + ICustomer Customer { get; set;  }
    + DateTime Timestamp { get; set;  }
    + IDictionary<IProduct, ulong> Amounts { get; set; }
}

interface IOrderID

interface ICustomer

interface IProduct

interface IOrderStore

IOrder "1" *- - "1" IOrderID
IOrder "1" *- - "1" ICustomer
IOrder "1" *- - "N" IProduct
IOrderStore "1" *- - "N" IOrder

IOrderManagementService ..> IOrder: handles
IOrderManagementService ..> IOrderStore: updates

note bottom of IOrderStore: repository
note top of IOrder: entity
note right of IOrderID: value object
note right of IProduct: entity
note right of ICustomer: entity
@enduml

PlantUML version 1.2021.7(Sun May 23 12:40:07 UTC 2021)
(GPL source distribution)
Java Runtime: Java(TM) SE Runtime Environment
JVM: Java HotSpot(TM) 64-Bit Server VM
Default Encoding: UTF-8
Language: en
Country: US
--></g></svg>