<?xml version="1.0" encoding="UTF-8" standalone="no"?>
<svg xmlns="http://www.w3.org/2000/svg" xmlns:xlink="http://www.w3.org/1999/xlink" contentScriptType="application/ecmascript" contentStyleType="text/css" height="286px" preserveAspectRatio="none" style="width:838px;height:286px;background:#FFFFFF;" version="1.1" viewBox="0 0 838 286" width="838px" zoomAndPan="magnify"><defs><filter height="300%" id="fzv2tvkd7clr1" width="300%" x="-1" y="-1"><feGaussianBlur result="blurOut" stdDeviation="2.0"/><feColorMatrix in="blurOut" result="blurOut2" type="matrix" values="0 0 0 0 0 0 0 0 0 0 0 0 0 0 0 0 0 0 .4 0"/><feOffset dx="4.0" dy="4.0" in="blurOut2" result="blurOut3"/><feBlend in="SourceGraphic" in2="blurOut3" mode="normal"/></filter></defs><g><!--MD5=[b5d7e04e25183738444792ef1475bf0c]
class IOrderManagementService--><rect codeLine="3" fill="#FEFECE" filter="url(#fzv2tvkd7clr1)" height="73.6094" id="IOrderManagementService" style="stroke:#A80036;stroke-width:1.5;" width="327" x="176" y="199"/><ellipse cx="254.75" cy="215" fill="#B4A7E5" rx="11" ry="11" style="stroke:#A80036;stroke-width:1.0;"/><path d="M255.7031,211.7813 L257.4219,211.7813 C257.8125,211.7813 258,211.75 258.125,211.6719 C258.3906,211.5156 258.5313,211.2344 258.5313,210.9375 C258.5313,210.6719 258.4219,210.4063 258.1875,210.2344 C258.0156,210.125 257.875,210.0938 257.4219,210.0938 L252.2813,210.0938 C251.8438,210.0938 251.7188,210.1094 251.5625,210.2031 C251.3125,210.3594 251.1563,210.6563 251.1563,210.9375 C251.1563,211.2188 251.2969,211.4688 251.5156,211.6406 C251.6719,211.75 251.8594,211.7813 252.2813,211.7813 L254,211.7813 L254,218.2969 L252.2813,218.2969 C251.8438,218.2969 251.7188,218.3125 251.5625,218.4219 C251.3125,218.5781 251.1563,218.8594 251.1563,219.1563 C251.1563,219.4063 251.2969,219.6719 251.5156,219.8281 C251.6719,219.9531 251.875,220 252.2813,220 L257.4219,220 C258.1719,220 258.5313,219.7188 258.5313,219.1563 C258.5313,218.875 258.4219,218.625 258.1875,218.4531 C258.0156,218.3281 257.875,218.2969 257.4219,218.2969 L255.7031,218.2969 L255.7031,211.7813 Z " fill="#000000"/><text fill="#000000" font-family="sans-serif" font-size="12" font-style="italic" lengthAdjust="spacing" textLength="161" x="275.25" y="219.1543">IOrderManagementService</text><line style="stroke:#A80036;stroke-width:1.5;" x1="177" x2="502" y1="231" y2="231"/><ellipse cx="187" cy="242" fill="#84BE84" rx="3" ry="3" style="stroke:#038048;stroke-width:1.0;"/><text fill="#000000" font-family="sans-serif" font-size="11" lengthAdjust="spacing" textLength="181" x="196" y="245.2104">void PerformOrder(IOrder order)</text><line style="stroke:#A80036;stroke-width:1.0;stroke-dasharray:1.0,2.0;" x1="177" x2="502" y1="251.8047" y2="251.8047"/><ellipse cx="187" cy="262.8047" rx="3" ry="3" style="stroke:#038048;stroke-width:1.0;fill:none;"/><text fill="#000000" font-family="sans-serif" font-size="11" font-weight="bold" lengthAdjust="spacing" textLength="38" x="196" y="266.0151">event</text><text fill="#000000" font-family="sans-serif" font-size="11" lengthAdjust="spacing" textLength="146" x="238" y="266.0151">Action&lt;IOrderEventArgs&gt;</text><text fill="#000000" font-family="sans-serif" font-size="11" font-style="italic" lengthAdjust="spacing" textLength="109" x="388" y="266.0151">OnOrderPerformed</text><!--MD5=[2cd16f057b8e08c98027ca7dffd412b3]
class IOrderEventArgs--><rect codeLine="10" fill="#FEFECE" filter="url(#fzv2tvkd7clr1)" height="99.2188" id="IOrderEventArgs" style="stroke:#A80036;stroke-width:1.5;" width="300" x="189.5" y="64.5"/><ellipse cx="285.25" cy="80.5" fill="#B4A7E5" rx="11" ry="11" style="stroke:#A80036;stroke-width:1.0;"/><path d="M286.2031,77.2813 L287.9219,77.2813 C288.3125,77.2813 288.5,77.25 288.625,77.1719 C288.8906,77.0156 289.0313,76.7344 289.0313,76.4375 C289.0313,76.1719 288.9219,75.9063 288.6875,75.7344 C288.5156,75.625 288.375,75.5938 287.9219,75.5938 L282.7813,75.5938 C282.3438,75.5938 282.2188,75.6094 282.0625,75.7031 C281.8125,75.8594 281.6563,76.1563 281.6563,76.4375 C281.6563,76.7188 281.7969,76.9688 282.0156,77.1406 C282.1719,77.25 282.3594,77.2813 282.7813,77.2813 L284.5,77.2813 L284.5,83.7969 L282.7813,83.7969 C282.3438,83.7969 282.2188,83.8125 282.0625,83.9219 C281.8125,84.0781 281.6563,84.3594 281.6563,84.6563 C281.6563,84.9063 281.7969,85.1719 282.0156,85.3281 C282.1719,85.4531 282.375,85.5 282.7813,85.5 L287.9219,85.5 C288.6719,85.5 289.0313,85.2188 289.0313,84.6563 C289.0313,84.375 288.9219,84.125 288.6875,83.9531 C288.5156,83.8281 288.375,83.7969 287.9219,83.7969 L286.2031,83.7969 L286.2031,77.2813 Z " fill="#000000"/><text fill="#000000" font-family="sans-serif" font-size="12" font-style="italic" lengthAdjust="spacing" textLength="100" x="305.75" y="84.6543">IOrderEventArgs</text><line style="stroke:#A80036;stroke-width:1.5;" x1="190.5" x2="488.5" y1="96.5" y2="96.5"/><ellipse cx="200.5" cy="107.5" rx="3" ry="3" style="stroke:#038048;stroke-width:1.0;fill:none;"/><text fill="#000000" font-family="sans-serif" font-size="11" lengthAdjust="spacing" textLength="109" x="209.5" y="110.7104">IOrderID Id { get; }</text><ellipse cx="200.5" cy="120.3047" rx="3" ry="3" style="stroke:#038048;stroke-width:1.0;fill:none;"/><text fill="#000000" font-family="sans-serif" font-size="11" lengthAdjust="spacing" textLength="177" x="209.5" y="123.5151">ICustomerID Customer { get; }</text><ellipse cx="200.5" cy="133.1094" rx="3" ry="3" style="stroke:#038048;stroke-width:1.0;fill:none;"/><text fill="#000000" font-family="sans-serif" font-size="11" lengthAdjust="spacing" textLength="57" x="209.5" y="136.3198">DateTime</text><text fill="#000000" font-family="sans-serif" font-size="11" font-weight="bold" lengthAdjust="spacing" textLength="75" x="270.5" y="136.3198">Timestamp</text><text fill="#000000" font-family="sans-serif" font-size="11" lengthAdjust="spacing" textLength="44" x="349.5" y="136.3198">{ get; }</text><ellipse cx="200.5" cy="145.9141" rx="3" ry="3" style="stroke:#038048;stroke-width:1.0;fill:none;"/><text fill="#000000" font-family="sans-serif" font-size="11" lengthAdjust="spacing" textLength="274" x="209.5" y="149.1245">IDictionary&lt;IProductID, ulong&gt; Amounts { get; }</text><line style="stroke:#A80036;stroke-width:1.5;" x1="190.5" x2="488.5" y1="155.7188" y2="155.7188"/><!--MD5=[1bef9e85998b52a9b4d4dca4f1f52f22]
class IOrderID--><rect codeLine="18" fill="#FEFECE" filter="url(#fzv2tvkd7clr1)" height="48" id="IOrderID" style="stroke:#A80036;stroke-width:1.5;" width="83" x="575" y="7"/><ellipse cx="590" cy="23" fill="#B4A7E5" rx="11" ry="11" style="stroke:#A80036;stroke-width:1.0;"/><path d="M590.9531,19.7813 L592.6719,19.7813 C593.0625,19.7813 593.25,19.75 593.375,19.6719 C593.6406,19.5156 593.7813,19.2344 593.7813,18.9375 C593.7813,18.6719 593.6719,18.4063 593.4375,18.2344 C593.2656,18.125 593.125,18.0938 592.6719,18.0938 L587.5313,18.0938 C587.0938,18.0938 586.9688,18.1094 586.8125,18.2031 C586.5625,18.3594 586.4063,18.6563 586.4063,18.9375 C586.4063,19.2188 586.5469,19.4688 586.7656,19.6406 C586.9219,19.75 587.1094,19.7813 587.5313,19.7813 L589.25,19.7813 L589.25,26.2969 L587.5313,26.2969 C587.0938,26.2969 586.9688,26.3125 586.8125,26.4219 C586.5625,26.5781 586.4063,26.8594 586.4063,27.1563 C586.4063,27.4063 586.5469,27.6719 586.7656,27.8281 C586.9219,27.9531 587.125,28 587.5313,28 L592.6719,28 C593.4219,28 593.7813,27.7188 593.7813,27.1563 C593.7813,26.875 593.6719,26.625 593.4375,26.4531 C593.2656,26.3281 593.125,26.2969 592.6719,26.2969 L590.9531,26.2969 L590.9531,19.7813 Z " fill="#000000"/><text fill="#000000" font-family="sans-serif" font-size="12" font-style="italic" lengthAdjust="spacing" textLength="51" x="604" y="27.1543">IOrderID</text><line style="stroke:#A80036;stroke-width:1.5;" x1="576" x2="657" y1="39" y2="39"/><line style="stroke:#A80036;stroke-width:1.5;" x1="576" x2="657" y1="47" y2="47"/><!--MD5=[786a416a6ee502ad4922c3f80b87123c]
class ICustomerID--><rect codeLine="20" fill="#FEFECE" filter="url(#fzv2tvkd7clr1)" height="48" id="ICustomerID" style="stroke:#A80036;stroke-width:1.5;" width="107" x="563" y="90"/><ellipse cx="578" cy="106" fill="#B4A7E5" rx="11" ry="11" style="stroke:#A80036;stroke-width:1.0;"/><path d="M578.9531,102.7813 L580.6719,102.7813 C581.0625,102.7813 581.25,102.75 581.375,102.6719 C581.6406,102.5156 581.7813,102.2344 581.7813,101.9375 C581.7813,101.6719 581.6719,101.4063 581.4375,101.2344 C581.2656,101.125 581.125,101.0938 580.6719,101.0938 L575.5313,101.0938 C575.0938,101.0938 574.9688,101.1094 574.8125,101.2031 C574.5625,101.3594 574.4063,101.6563 574.4063,101.9375 C574.4063,102.2188 574.5469,102.4688 574.7656,102.6406 C574.9219,102.75 575.1094,102.7813 575.5313,102.7813 L577.25,102.7813 L577.25,109.2969 L575.5313,109.2969 C575.0938,109.2969 574.9688,109.3125 574.8125,109.4219 C574.5625,109.5781 574.4063,109.8594 574.4063,110.1563 C574.4063,110.4063 574.5469,110.6719 574.7656,110.8281 C574.9219,110.9531 575.125,111 575.5313,111 L580.6719,111 C581.4219,111 581.7813,110.7188 581.7813,110.1563 C581.7813,109.875 581.6719,109.625 581.4375,109.4531 C581.2656,109.3281 581.125,109.2969 580.6719,109.2969 L578.9531,109.2969 L578.9531,102.7813 Z " fill="#000000"/><text fill="#000000" font-family="sans-serif" font-size="12" font-style="italic" lengthAdjust="spacing" textLength="75" x="592" y="110.1543">ICustomerID</text><line style="stroke:#A80036;stroke-width:1.5;" x1="564" x2="669" y1="122" y2="122"/><line style="stroke:#A80036;stroke-width:1.5;" x1="564" x2="669" y1="130" y2="130"/><!--MD5=[29daa450be8488526b54bc6158c081f6]
class IProductID--><rect codeLine="22" fill="#FEFECE" filter="url(#fzv2tvkd7clr1)" height="48" id="IProductID" style="stroke:#A80036;stroke-width:1.5;" width="96" x="568.5" y="173"/><ellipse cx="583.5" cy="189" fill="#B4A7E5" rx="11" ry="11" style="stroke:#A80036;stroke-width:1.0;"/><path d="M584.4531,185.7813 L586.1719,185.7813 C586.5625,185.7813 586.75,185.75 586.875,185.6719 C587.1406,185.5156 587.2813,185.2344 587.2813,184.9375 C587.2813,184.6719 587.1719,184.4063 586.9375,184.2344 C586.7656,184.125 586.625,184.0938 586.1719,184.0938 L581.0313,184.0938 C580.5938,184.0938 580.4688,184.1094 580.3125,184.2031 C580.0625,184.3594 579.9063,184.6563 579.9063,184.9375 C579.9063,185.2188 580.0469,185.4688 580.2656,185.6406 C580.4219,185.75 580.6094,185.7813 581.0313,185.7813 L582.75,185.7813 L582.75,192.2969 L581.0313,192.2969 C580.5938,192.2969 580.4688,192.3125 580.3125,192.4219 C580.0625,192.5781 579.9063,192.8594 579.9063,193.1563 C579.9063,193.4063 580.0469,193.6719 580.2656,193.8281 C580.4219,193.9531 580.625,194 581.0313,194 L586.1719,194 C586.9219,194 587.2813,193.7188 587.2813,193.1563 C587.2813,192.875 587.1719,192.625 586.9375,192.4531 C586.7656,192.3281 586.625,192.2969 586.1719,192.2969 L584.4531,192.2969 L584.4531,185.7813 Z " fill="#000000"/><text fill="#000000" font-family="sans-serif" font-size="12" font-style="italic" lengthAdjust="spacing" textLength="64" x="597.5" y="193.1543">IProductID</text><line style="stroke:#A80036;stroke-width:1.5;" x1="569.5" x2="663.5" y1="205" y2="205"/><line style="stroke:#A80036;stroke-width:1.5;" x1="569.5" x2="663.5" y1="213" y2="213"/><path d="M6,101.5 L6,126.6328 A0,0 0 0 0 6,126.6328 L116,126.6328 A0,0 0 0 0 116,126.6328 L116,119.5 L189.319,114 L116,111.5 L116,111.5 L106,101.5 L6,101.5 A0,0 0 0 0 6,101.5 " fill="#FBFB77" filter="url(#fzv2tvkd7clr1)" style="stroke:#A80036;stroke-width:1.0;"/><path d="M106,101.5 L106,111.5 L116,111.5 L106,101.5 " fill="#FBFB77" style="stroke:#A80036;stroke-width:1.0;"/><text fill="#000000" font-family="sans-serif" font-size="13" lengthAdjust="spacing" textLength="89" x="12" y="118.5669">domain event</text><path d="M27.5,223.5 L27.5,248.6328 A0,0 0 0 0 27.5,248.6328 L94.5,248.6328 A0,0 0 0 0 94.5,248.6328 L94.5,241.5 L175.938,236 L94.5,233.5 L94.5,233.5 L84.5,223.5 L27.5,223.5 A0,0 0 0 0 27.5,223.5 " fill="#FBFB77" filter="url(#fzv2tvkd7clr1)" style="stroke:#A80036;stroke-width:1.0;"/><path d="M84.5,223.5 L84.5,233.5 L94.5,233.5 L84.5,223.5 " fill="#FBFB77" style="stroke:#A80036;stroke-width:1.0;"/><text fill="#000000" font-family="sans-serif" font-size="13" lengthAdjust="spacing" textLength="46" x="33.5" y="240.5669">service</text><path d="M730,18.5 L730,27 L658.127,31 L730,35 L730,43.6328 A0,0 0 0 0 730,43.6328 L829,43.6328 A0,0 0 0 0 829,43.6328 L829,28.5 L819,18.5 L730,18.5 A0,0 0 0 0 730,18.5 " fill="#FBFB77" filter="url(#fzv2tvkd7clr1)" style="stroke:#A80036;stroke-width:1.0;"/><path d="M819,18.5 L819,28.5 L829,28.5 L819,18.5 " fill="#FBFB77" style="stroke:#A80036;stroke-width:1.0;"/><text fill="#000000" font-family="sans-serif" font-size="13" lengthAdjust="spacing" textLength="78" x="736" y="35.5669">value object</text><path d="M730,184.5 L730,193 L664.501,197 L730,201 L730,209.6328 A0,0 0 0 0 730,209.6328 L829,209.6328 A0,0 0 0 0 829,209.6328 L829,194.5 L819,184.5 L730,184.5 A0,0 0 0 0 730,184.5 " fill="#FBFB77" filter="url(#fzv2tvkd7clr1)" style="stroke:#A80036;stroke-width:1.0;"/><path d="M819,184.5 L819,194.5 L829,194.5 L819,184.5 " fill="#FBFB77" style="stroke:#A80036;stroke-width:1.0;"/><text fill="#000000" font-family="sans-serif" font-size="13" lengthAdjust="spacing" textLength="78" x="736" y="201.5669">value object</text><path d="M730,101.5 L730,110 L670.217,114 L730,118 L730,126.6328 A0,0 0 0 0 730,126.6328 L829,126.6328 A0,0 0 0 0 829,126.6328 L829,111.5 L819,101.5 L730,101.5 A0,0 0 0 0 730,101.5 " fill="#FBFB77" filter="url(#fzv2tvkd7clr1)" style="stroke:#A80036;stroke-width:1.0;"/><path d="M819,101.5 L819,111.5 L829,111.5 L819,101.5 " fill="#FBFB77" style="stroke:#A80036;stroke-width:1.0;"/><text fill="#000000" font-family="sans-serif" font-size="13" lengthAdjust="spacing" textLength="78" x="736" y="118.5669">value object</text><!--MD5=[ee764c43ee713316fa98985c0fce26c5]
reverse link IOrderEventArgs to IOrderID--><path codeLine="24" d="M502.138,65.215 C529.112,57.074 554.806,49.318 574.892,43.256 " fill="none" id="IOrderEventArgs-backto-IOrderID" style="stroke:#A80036;stroke-width:1.0;"/><polygon fill="#A80036" points="489.67,68.978,496.57,71.0731,501.1578,65.5096,494.2578,63.4145,489.67,68.978" style="stroke:#A80036;stroke-width:1.0;"/><text fill="#000000" font-family="sans-serif" font-size="13" lengthAdjust="spacing" textLength="8" x="497.6194" y="79.108">1</text><text fill="#000000" font-family="sans-serif" font-size="13" lengthAdjust="spacing" textLength="8" x="559.0531" y="58.7299">1</text><!--MD5=[c85a4651e9f0b8cc0abffec8f17ac664]
reverse link IOrderEventArgs to ICustomerID--><path codeLine="25" d="M502.837,114 C524.438,114 545.193,114 562.874,114 " fill="none" id="IOrderEventArgs-backto-ICustomerID" style="stroke:#A80036;stroke-width:1.0;"/><polygon fill="#A80036" points="489.67,114,495.67,118,501.67,114,495.67,110,489.67,114" style="stroke:#A80036;stroke-width:1.0;"/><text fill="#000000" font-family="sans-serif" font-size="13" lengthAdjust="spacing" textLength="8" x="497.6194" y="126.4514">1</text><text fill="#000000" font-family="sans-serif" font-size="13" lengthAdjust="spacing" textLength="8" x="547.1305" y="127.0836">1</text><!--MD5=[64de02aac8e59f6c0b6fd682c4b0755d]
reverse link IOrderEventArgs to IProductID--><path codeLine="26" d="M502.316,162.839 C526.353,170.094 549.365,177.0392 568.288,182.7506 " fill="none" id="IOrderEventArgs-backto-IProductID" style="stroke:#A80036;stroke-width:1.0;"/><polygon fill="#A80036" points="489.67,159.022,494.2578,164.5855,501.1578,162.4904,496.57,156.9269,489.67,159.022" style="stroke:#A80036;stroke-width:1.0;"/><text fill="#000000" font-family="sans-serif" font-size="13" lengthAdjust="spacing" textLength="8" x="497.6194" y="173.7948">1</text><text fill="#000000" font-family="sans-serif" font-size="13" lengthAdjust="spacing" textLength="9" x="551.5459" y="193.8359">N</text><!--MD5=[5fd48d36ddc0a3dec745ac88b027722d]
link IOrderEventArgs to IOrderManagementService--><path codeLine="28" d="M339.5,163.704 C339.5,175.412 339.5,187.1201 339.5,198.8281 " fill="none" id="IOrderEventArgs-IOrderManagementService" style="stroke:#A80036;stroke-width:1.0;stroke-dasharray:7.0,7.0;"/><!--MD5=[27468a4dfee32751d196a3e657c629e6]
@startuml
left to right direction

interface IOrderManagementService
{
    + void PerformOrder(IOrder order)
    ..
    + **event** Action<IOrderEventArgs> //OnOrderPerformed//
}

interface IOrderEventArgs
{
    + IOrderID Id { get; }
    + ICustomerID Customer { get; }
    + DateTime **Timestamp** { get; }
    + IDictionary<IProductID, ulong> Amounts { get; }
}

interface IOrderID

interface ICustomerID

interface IProductID

IOrderEventArgs "1" *- - "1" IOrderID
IOrderEventArgs "1" *- - "1" ICustomerID
IOrderEventArgs "1" *- - "N" IProductID

IOrderEventArgs .right. IOrderManagementService

note left of IOrderEventArgs: domain event
note left of IOrderManagementService: service
note right of IOrderID: value object
note right of IProductID: value object
note right of ICustomerID: value object
@enduml

PlantUML version 1.2021.7(Sun May 23 12:40:07 UTC 2021)
(GPL source distribution)
Java Runtime: Java(TM) SE Runtime Environment
JVM: Java HotSpot(TM) 64-Bit Server VM
Default Encoding: UTF-8
Language: en
Country: US
--></g></svg>