<?xml version="1.0" encoding="UTF-8"?><svg xmlns="http://www.w3.org/2000/svg" xmlns:xlink="http://www.w3.org/1999/xlink" fill-opacity="1" color-rendering="auto" color-interpolation="auto" text-rendering="auto" stroke="black" stroke-linecap="square" width="1024" stroke-miterlimit="10" shape-rendering="auto" stroke-opacity="1" fill="black" stroke-dasharray="none" font-weight="normal" stroke-width="1" height="414" font-family="'Dialog'" font-style="normal" stroke-linejoin="miter" font-size="12px" stroke-dashoffset="0" image-rendering="auto">
  <!--Generated by ySVG 2.6-->
  <defs id="genericDefs"/>
  <g>
    <defs id="defs1">
      <clipPath clipPathUnits="userSpaceOnUse" id="clipPath1">
        <path d="M0 0 L1024 0 L1024 414 L0 414 L0 0 Z"/>
      </clipPath>
      <clipPath clipPathUnits="userSpaceOnUse" id="clipPath2">
        <path d="M119 175 L702 175 L702 410.7051 L119 410.7051 L119 175 Z"/>
      </clipPath>
    </defs>
    <g fill="white" text-rendering="geometricPrecision" shape-rendering="geometricPrecision" transform="matrix(1.7564,0,0,1.7564,-209.0154,-307.3756)" stroke="white">
      <rect x="272.79" y="185" clip-path="url(#clipPath2)" width="46.4199" rx="4" ry="4" height="30" stroke="none"/>
    </g>
    <g text-rendering="geometricPrecision" stroke-miterlimit="1.45" shape-rendering="geometricPrecision" transform="matrix(1.7564,0,0,1.7564,-209.0154,-307.3756)" stroke-linecap="butt">
      <rect x="272.79" y="185" clip-path="url(#clipPath2)" fill="none" width="46.4199" rx="4" ry="4" height="30"/>
      <text x="282.8252" xml:space="preserve" y="204.7139" clip-path="url(#clipPath2)" font-family="sans-serif" stroke="none">x = 0</text>
    </g>
    <g fill="white" text-rendering="geometricPrecision" shape-rendering="geometricPrecision" transform="matrix(1.7564,0,0,1.7564,-209.0154,-307.3756)" stroke="white">
      <rect x="399.5801" y="185" clip-path="url(#clipPath2)" width="46.4199" rx="4" ry="4" height="30" stroke="none"/>
    </g>
    <g text-rendering="geometricPrecision" stroke-miterlimit="1.45" shape-rendering="geometricPrecision" transform="matrix(1.7564,0,0,1.7564,-209.0154,-307.3756)" stroke-linecap="butt">
      <rect x="399.5801" y="185" clip-path="url(#clipPath2)" fill="none" width="46.4199" rx="4" ry="4" height="30"/>
      <text x="409.6152" xml:space="preserve" y="204.7139" clip-path="url(#clipPath2)" font-family="sans-serif" stroke="none">x = 1</text>
    </g>
    <g fill="white" text-rendering="geometricPrecision" shape-rendering="geometricPrecision" transform="matrix(1.7564,0,0,1.7564,-209.0154,-307.3756)" stroke="white">
      <rect x="526.3701" y="185" clip-path="url(#clipPath2)" width="46.4199" rx="4" ry="4" height="30" stroke="none"/>
    </g>
    <g text-rendering="geometricPrecision" stroke-miterlimit="1.45" shape-rendering="geometricPrecision" transform="matrix(1.7564,0,0,1.7564,-209.0154,-307.3756)" stroke-linecap="butt">
      <rect x="526.3701" y="185" clip-path="url(#clipPath2)" fill="none" width="46.4199" rx="4" ry="4" height="30"/>
      <text x="536.4053" xml:space="preserve" y="204.7139" clip-path="url(#clipPath2)" font-family="sans-serif" stroke="none">x = 2</text>
    </g>
    <g fill="white" text-rendering="geometricPrecision" shape-rendering="geometricPrecision" transform="matrix(1.7564,0,0,1.7564,-209.0154,-307.3756)" stroke="white">
      <rect x="653.793" y="185" clip-path="url(#clipPath2)" width="45.1543" rx="4" ry="4" height="30" stroke="none"/>
    </g>
    <g text-rendering="geometricPrecision" stroke-miterlimit="1.45" stroke-dasharray="6,2" shape-rendering="geometricPrecision" transform="matrix(1.7564,0,0,1.7564,-209.0154,-307.3756)" stroke-linecap="butt">
      <rect x="653.793" y="185" clip-path="url(#clipPath2)" fill="none" width="45.1543" rx="4" ry="4" height="30"/>
      <text x="663.1953" y="204.7139" clip-path="url(#clipPath2)" font-family="sans-serif" stroke-dasharray="none" stroke="none" xml:space="preserve">x = ?</text>
    </g>
    <g fill="white" text-rendering="geometricPrecision" shape-rendering="geometricPrecision" transform="matrix(1.7564,0,0,1.7564,-209.0154,-307.3756)" stroke="white">
      <rect x="272.79" y="281.8" clip-path="url(#clipPath2)" width="46.4199" rx="4" ry="4" height="30" stroke="none"/>
    </g>
    <g text-rendering="geometricPrecision" stroke-miterlimit="1.45" shape-rendering="geometricPrecision" transform="matrix(1.7564,0,0,1.7564,-209.0154,-307.3756)" stroke-linecap="butt">
      <rect x="272.79" y="281.8" clip-path="url(#clipPath2)" fill="none" width="46.4199" rx="4" ry="4" height="30"/>
      <text x="282.8252" xml:space="preserve" y="301.5139" clip-path="url(#clipPath2)" font-family="sans-serif" stroke="none">x = 0</text>
    </g>
    <g fill="white" text-rendering="geometricPrecision" shape-rendering="geometricPrecision" transform="matrix(1.7564,0,0,1.7564,-209.0154,-307.3756)" stroke="white">
      <rect x="399.5801" y="278.2" clip-path="url(#clipPath2)" width="46.4199" rx="4" ry="4" height="37.2" stroke="none"/>
    </g>
    <g text-rendering="geometricPrecision" stroke-miterlimit="1.45" shape-rendering="geometricPrecision" transform="matrix(1.7564,0,0,1.7564,-209.0154,-307.3756)" stroke-linecap="butt">
      <rect x="399.5801" y="278.2" clip-path="url(#clipPath2)" fill="none" width="46.4199" rx="4" ry="4" height="37.2"/>
      <text x="409.6152" xml:space="preserve" y="294.1633" clip-path="url(#clipPath2)" font-family="sans-serif" stroke="none">x = 0</text>
      <text x="412.7822" xml:space="preserve" y="308.8644" clip-path="url(#clipPath2)" font-family="sans-serif" stroke="none">x++</text>
    </g>
    <g fill="white" text-rendering="geometricPrecision" shape-rendering="geometricPrecision" transform="matrix(1.7564,0,0,1.7564,-209.0154,-307.3756)" stroke="white">
      <rect x="526.3701" y="269.4" clip-path="url(#clipPath2)" width="46.4199" rx="4" ry="4" height="54.8" stroke="none"/>
    </g>
    <g text-rendering="geometricPrecision" stroke-miterlimit="1.45" shape-rendering="geometricPrecision" transform="matrix(1.7564,0,0,1.7564,-209.0154,-307.3756)" stroke-linecap="butt">
      <rect x="526.3701" y="269.4" clip-path="url(#clipPath2)" fill="none" width="46.4199" rx="4" ry="4" height="54.8"/>
      <text x="536.4053" xml:space="preserve" y="286.8127" clip-path="url(#clipPath2)" font-family="sans-serif" stroke="none">x = 0</text>
      <text x="539.5723" xml:space="preserve" y="301.5139" clip-path="url(#clipPath2)" font-family="sans-serif" stroke="none">x++</text>
      <text x="539.5723" xml:space="preserve" y="316.215" clip-path="url(#clipPath2)" font-family="sans-serif" stroke="none">x++</text>
    </g>
    <g fill="white" text-rendering="geometricPrecision" shape-rendering="geometricPrecision" transform="matrix(1.7564,0,0,1.7564,-209.0154,-307.3756)" stroke="white">
      <rect x="653.1602" y="264.6" clip-path="url(#clipPath2)" width="46.4199" rx="4" ry="4" height="64.4" stroke="none"/>
    </g>
    <g text-rendering="geometricPrecision" stroke-miterlimit="1.45" stroke-dasharray="6,2" shape-rendering="geometricPrecision" transform="matrix(1.7564,0,0,1.7564,-209.0154,-307.3756)" stroke-linecap="butt">
      <rect x="653.1602" y="264.6" clip-path="url(#clipPath2)" fill="none" width="46.4199" rx="4" ry="4" height="64.4"/>
      <text x="663.1953" y="279.4621" clip-path="url(#clipPath2)" font-family="sans-serif" stroke-dasharray="none" stroke="none" xml:space="preserve">x = 0</text>
      <text x="666.3623" y="294.1633" clip-path="url(#clipPath2)" font-family="sans-serif" stroke-dasharray="none" stroke="none" xml:space="preserve">x++</text>
      <text x="666.3623" y="308.8644" clip-path="url(#clipPath2)" font-family="sans-serif" stroke-dasharray="none" stroke="none" xml:space="preserve">x++</text>
      <text x="673.0332" y="323.5656" clip-path="url(#clipPath2)" font-family="sans-serif" stroke-dasharray="none" stroke="none" xml:space="preserve">?</text>
    </g>
    <g fill="rgb(255,204,0)" text-rendering="geometricPrecision" shape-rendering="geometricPrecision" transform="matrix(1.7564,0,0,1.7564,-209.0154,-307.3756)" stroke="rgb(255,204,0)">
      <path d="M121.7236 282.8 L191.3162 282.8 L191.3162 297.8 L206.3162 297.8 L206.3162 310.8 L121.7236 310.8 Z" stroke="none" clip-path="url(#clipPath2)"/>
      <path fill="white" d="M191.3162 282.8 L191.3162 297.8 L206.3162 297.8 Z" clip-path="url(#clipPath2)" fill-rule="evenodd" stroke="none"/>
    </g>
    <g text-rendering="geometricPrecision" stroke-miterlimit="1.45" shape-rendering="geometricPrecision" transform="matrix(1.7564,0,0,1.7564,-209.0154,-307.3756)" stroke-linecap="butt">
      <path fill="none" d="M121.7236 282.8 L191.3162 282.8 L191.3162 297.8 L206.3162 297.8 L206.3162 310.8 L121.7236 310.8 Z" clip-path="url(#clipPath2)"/>
      <path fill="none" d="M191.3162 282.8 L191.3162 297.8 L206.3162 297.8 Z" clip-path="url(#clipPath2)" fill-rule="evenodd"/>
      <text x="151.352" xml:space="preserve" y="301.5139" clip-path="url(#clipPath2)" font-family="sans-serif" stroke="none">Flow</text>
    </g>
    <g fill="rgb(255,204,0)" text-rendering="geometricPrecision" shape-rendering="geometricPrecision" transform="matrix(1.7564,0,0,1.7564,-209.0154,-307.3756)" stroke="rgb(255,204,0)">
      <path d="M127.9381 186 L185.1018 186 L185.1018 201 L200.1018 201 L200.1018 214 L127.9381 214 Z" stroke="none" clip-path="url(#clipPath2)"/>
      <path fill="white" d="M185.1018 186 L185.1018 201 L200.1018 201 Z" clip-path="url(#clipPath2)" fill-rule="evenodd" stroke="none"/>
    </g>
    <g text-rendering="geometricPrecision" stroke-miterlimit="1.45" shape-rendering="geometricPrecision" transform="matrix(1.7564,0,0,1.7564,-209.0154,-307.3756)" stroke-linecap="butt">
      <path fill="none" d="M127.9381 186 L185.1018 186 L185.1018 201 L200.1018 201 L200.1018 214 L127.9381 214 Z" clip-path="url(#clipPath2)"/>
      <path fill="none" d="M185.1018 186 L185.1018 201 L200.1018 201 Z" clip-path="url(#clipPath2)" fill-rule="evenodd"/>
      <text x="150.0102" xml:space="preserve" y="204.7139" clip-path="url(#clipPath2)" font-family="sans-serif" stroke="none">State</text>
      <text x="282.8252" xml:space="preserve" y="398.3139" clip-path="url(#clipPath2)" font-family="sans-serif" stroke="none">x = 0</text>
      <text x="409.6152" xml:space="preserve" y="398.3139" clip-path="url(#clipPath2)" font-family="sans-serif" stroke="none">x = 1</text>
      <text x="536.4053" xml:space="preserve" y="398.3139" clip-path="url(#clipPath2)" font-family="sans-serif" stroke="none">x = 2</text>
      <text x="663.1953" xml:space="preserve" y="398.3139" clip-path="url(#clipPath2)" font-family="sans-serif" stroke="none">x = ?</text>
      <path fill="none" d="M319.185 200 L391.5952 200" clip-path="url(#clipPath2)"/>
      <path d="M399.5952 200 L387.5952 195 L390.5952 200 L387.5952 205 Z" clip-path="url(#clipPath2)" stroke="none"/>
      <text x="349.5468" xml:space="preserve" y="191.7532" clip-path="url(#clipPath2)" font-family="sans-serif" stroke="none">+1</text>
      <path fill="none" d="M445.975 200 L518.3853 200" clip-path="url(#clipPath2)"/>
      <path d="M526.3853 200 L514.3853 195 L517.3853 200 L514.3853 205 Z" clip-path="url(#clipPath2)" stroke="none"/>
      <text x="479.3442" xml:space="preserve" y="194.1699" clip-path="url(#clipPath2)" font-family="sans-serif" stroke="none">+1</text>
      <path fill="none" stroke-dasharray="6,2" d="M572.7651 200 L645.7824 200" clip-path="url(#clipPath2)"/>
      <path stroke-dasharray="6,2" d="M653.7824 200 L641.7824 195 L644.7824 200 L641.7824 205 Z" clip-path="url(#clipPath2)" stroke="none"/>
      <text x="609.6382" xml:space="preserve" y="191.2814" clip-path="url(#clipPath2)" font-family="sans-serif" stroke="none">?</text>
    </g>
    <g stroke-linecap="round" transform="matrix(1.7564,0,0,1.7564,-209.0154,-307.3756)" stroke-dashoffset="2" text-rendering="geometricPrecision" shape-rendering="geometricPrecision" stroke-dasharray="0,8" stroke-width="2" stroke-miterlimit="1.45">
      <path fill="none" d="M296 214.9832 L296 281.8189" clip-path="url(#clipPath2)"/>
    </g>
    <g text-rendering="geometricPrecision" stroke-miterlimit="1.45" shape-rendering="geometricPrecision" transform="matrix(1.7564,0,0,1.7564,-209.0154,-307.3756)" stroke-linecap="butt">
      <path fill="none" d="M319.185 296.8 L391.5952 296.8" clip-path="url(#clipPath2)"/>
      <path d="M399.5952 296.8 L387.5952 291.8 L390.5952 296.8 L387.5952 301.8 Z" clip-path="url(#clipPath2)" stroke="none"/>
      <text x="349.5468" xml:space="preserve" y="288.5532" clip-path="url(#clipPath2)" font-family="sans-serif" stroke="none">+1</text>
    </g>
    <g stroke-linecap="round" transform="matrix(1.7564,0,0,1.7564,-209.0154,-307.3756)" stroke-dashoffset="2" text-rendering="geometricPrecision" shape-rendering="geometricPrecision" stroke-dasharray="0,8" stroke-width="2" stroke-miterlimit="1.45">
      <path fill="none" d="M422.79 214.9832 L422.79 278.2234" clip-path="url(#clipPath2)"/>
    </g>
    <g text-rendering="geometricPrecision" stroke-miterlimit="1.45" shape-rendering="geometricPrecision" transform="matrix(1.7564,0,0,1.7564,-209.0154,-307.3756)" stroke-linecap="butt">
      <path fill="none" d="M445.975 296.8 L518.3853 296.8" clip-path="url(#clipPath2)"/>
      <path d="M526.3853 296.8 L514.3853 291.8 L517.3853 296.8 L514.3853 301.8 Z" clip-path="url(#clipPath2)" stroke="none"/>
      <text x="479.3442" xml:space="preserve" y="290.9698" clip-path="url(#clipPath2)" font-family="sans-serif" stroke="none">+1</text>
    </g>
    <g stroke-linecap="round" transform="matrix(1.7564,0,0,1.7564,-209.0154,-307.3756)" stroke-dashoffset="2" text-rendering="geometricPrecision" shape-rendering="geometricPrecision" stroke-dasharray="0,8" stroke-width="2" stroke-miterlimit="1.45">
      <path fill="none" d="M549.5801 214.9832 L549.5801 269.4345" clip-path="url(#clipPath2)"/>
    </g>
    <g text-rendering="geometricPrecision" stroke-miterlimit="1.45" stroke-dasharray="6,2" shape-rendering="geometricPrecision" transform="matrix(1.7564,0,0,1.7564,-209.0154,-307.3756)" stroke-linecap="butt">
      <path fill="none" d="M572.7651 296.8 L645.1754 296.8" clip-path="url(#clipPath2)"/>
      <path d="M653.1754 296.8 L641.1754 291.8 L644.1754 296.8 L641.1754 301.8 Z" clip-path="url(#clipPath2)" stroke="none"/>
      <text x="607.969" y="291.8669" clip-path="url(#clipPath2)" font-family="sans-serif" stroke-dasharray="none" stroke="none" xml:space="preserve">?</text>
    </g>
    <g stroke-linecap="round" transform="matrix(1.7564,0,0,1.7564,-209.0154,-307.3756)" stroke-dashoffset="2" text-rendering="geometricPrecision" shape-rendering="geometricPrecision" stroke-dasharray="0,8" stroke-width="2" stroke-miterlimit="1.45">
      <path fill="none" d="M676.3701 214.9832 L676.3701 264.5607" clip-path="url(#clipPath2)"/>
      <path fill="none" d="M296 311.7832 L296 372.975" clip-path="url(#clipPath2)"/>
      <path d="M296 377.475 L302.75 363.975 L296 377.475 L289.25 363.975 Z" clip-path="url(#clipPath2)" stroke="none"/>
    </g>
    <g text-rendering="geometricPrecision" shape-rendering="geometricPrecision" transform="matrix(1.7564,0,0,1.7564,-209.0154,-307.3756)">
      <path fill="none" d="M296 377.475 L302.75 363.975 L296 377.475 L289.25 363.975 Z" clip-path="url(#clipPath2)"/>
    </g>
    <g stroke-linecap="round" transform="matrix(1.7564,0,0,1.7564,-209.0154,-307.3756)" stroke-dashoffset="2" text-rendering="geometricPrecision" shape-rendering="geometricPrecision" stroke-dasharray="0,8" stroke-width="2" stroke-miterlimit="1.45">
      <path fill="none" d="M421.7808 315.3999 L422.5239 372.9755" clip-path="url(#clipPath2)"/>
      <path d="M422.5819 377.4751 L429.1572 363.8891 L422.5819 377.4751 L415.6583 364.0633 Z" clip-path="url(#clipPath2)" stroke="none"/>
    </g>
    <g text-rendering="geometricPrecision" shape-rendering="geometricPrecision" transform="matrix(1.7564,0,0,1.7564,-209.0154,-307.3756)">
      <path fill="none" d="M422.5819 377.4751 L429.1572 363.8891 L422.5819 377.4751 L415.6583 364.0633 Z" clip-path="url(#clipPath2)"/>
    </g>
    <g stroke-linecap="round" transform="matrix(1.7564,0,0,1.7564,-209.0154,-307.3756)" stroke-dashoffset="2" text-rendering="geometricPrecision" shape-rendering="geometricPrecision" stroke-dasharray="0,8" stroke-width="2" stroke-miterlimit="1.45">
      <path fill="none" d="M549.5801 324.1668 L549.5801 372.975" clip-path="url(#clipPath2)"/>
      <path d="M549.5801 377.475 L556.3301 363.975 L549.5801 377.475 L542.8301 363.975 Z" clip-path="url(#clipPath2)" stroke="none"/>
    </g>
    <g text-rendering="geometricPrecision" shape-rendering="geometricPrecision" transform="matrix(1.7564,0,0,1.7564,-209.0154,-307.3756)">
      <path fill="none" d="M549.5801 377.475 L556.3301 363.975 L549.5801 377.475 L542.8301 363.975 Z" clip-path="url(#clipPath2)"/>
    </g>
    <g stroke-linecap="round" transform="matrix(1.7564,0,0,1.7564,-209.0154,-307.3756)" stroke-dashoffset="2" text-rendering="geometricPrecision" shape-rendering="geometricPrecision" stroke-dasharray="0,8" stroke-width="2" stroke-miterlimit="1.45">
      <path fill="none" d="M676.3701 328.9879 L676.3701 372.975" clip-path="url(#clipPath2)"/>
      <path d="M676.3701 377.475 L683.1201 363.975 L676.3701 377.475 L669.6201 363.975 Z" clip-path="url(#clipPath2)" stroke="none"/>
    </g>
    <g text-rendering="geometricPrecision" shape-rendering="geometricPrecision" transform="matrix(1.7564,0,0,1.7564,-209.0154,-307.3756)">
      <path fill="none" d="M676.3701 377.475 L683.1201 363.975 L676.3701 377.475 L669.6201 363.975 Z" clip-path="url(#clipPath2)"/>
    </g>
  </g>
</svg>
