<svg xmlns="http://www.w3.org/2000/svg" xmlns:xlink="http://www.w3.org/1999/xlink" contentStyleType="text/css" data-diagram-type="CLASS" height="194px" preserveAspectRatio="none" style="width:108px;height:194px;background:#FFFFFF;" version="1.1" viewBox="0 0 108 194" width="108px" zoomAndPan="magnify"><defs/><g><!--class Book--><g class="entity" data-entity="Book" data-source-line="6" data-uid="ent0002" id="entity_Book"><rect fill="#F1F1F1" height="68" rx="2.5" ry="2.5" style="stroke:#181818;stroke-width:0.5;" width="82.0273" x="12.5" y="12"/><ellipse cx="35.6527" cy="28" fill="#ADD1B2" rx="11" ry="11" style="stroke:#181818;stroke-width:1;"/><path d="M38.1259,34.1431 Q37.5448,34.4419 36.9057,34.5913 Q36.2665,34.7407 35.5609,34.7407 Q33.0541,34.7407 31.7343,33.0889 Q30.4145,31.437 30.4145,28.3159 Q30.4145,25.1865 31.7343,23.5347 Q33.0541,21.8828 35.5609,21.8828 Q36.2665,21.8828 36.914,22.0322 Q37.5614,22.1816 38.1259,22.4805 L38.1259,25.2031 Q37.495,24.6221 36.9015,24.3523 Q36.308,24.0825 35.6771,24.0825 Q34.3324,24.0825 33.6476,25.1492 Q32.9628,26.2158 32.9628,28.3159 Q32.9628,30.4077 33.6476,31.4744 Q34.3324,32.541 35.6771,32.541 Q36.308,32.541 36.9015,32.2712 Q37.495,32.0015 38.1259,31.4204 Z " fill="#000000"/><text fill="#000000" font-family="Helvetica" font-size="14" lengthAdjust="spacing" textLength="31.9102" x="51.4645" y="31.7803">Book</text><line style="stroke:#181818;stroke-width:0.5;" x1="13.5" x2="93.5273" y1="44" y2="44"/><text fill="#000000" font-family="Helvetica" font-size="14" lengthAdjust="spacing" textLength="70.0273" x="18.5" y="58.7803">title : String</text><text fill="#000000" font-family="Helvetica" font-size="14" lengthAdjust="spacing" textLength="53.6895" x="18.5" y="72.7803">year : int</text></g><!--class Author--><g class="entity" data-entity="Author" data-source-line="10" data-uid="ent0003" id="entity_Author"><rect fill="#F1F1F1" height="54" rx="2.5" ry="2.5" style="stroke:#181818;stroke-width:0.5;" width="95.2617" x="6" y="133"/><ellipse cx="30.9062" cy="149" fill="#ADD1B2" rx="11" ry="11" style="stroke:#181818;stroke-width:1;"/><path d="M33.3793,155.1431 Q32.7982,155.4419 32.1591,155.5913 Q31.5199,155.7407 30.8144,155.7407 Q28.3075,155.7407 26.9877,154.0889 Q25.6679,152.437 25.6679,149.3159 Q25.6679,146.1865 26.9877,144.5347 Q28.3075,142.8828 30.8144,142.8828 Q31.5199,142.8828 32.1674,143.0322 Q32.8148,143.1816 33.3793,143.4805 L33.3793,146.2031 Q32.7484,145.6221 32.1549,145.3523 Q31.5614,145.0825 30.9306,145.0825 Q29.5858,145.0825 28.901,146.1492 Q28.2162,147.2158 28.2162,149.3159 Q28.2162,151.4077 28.901,152.4744 Q29.5858,153.541 30.9306,153.541 Q31.5614,153.541 32.1549,153.2712 Q32.7484,153.0015 33.3793,152.4204 Z " fill="#000000"/><text fill="#000000" font-family="Helvetica" font-size="14" lengthAdjust="spacing" textLength="41.248" x="47.1075" y="152.7803">Author</text><line style="stroke:#181818;stroke-width:0.5;" x1="7" x2="100.2617" y1="165" y2="165"/><text fill="#000000" font-family="Helvetica" font-size="14" lengthAdjust="spacing" textLength="83.2617" x="12" y="179.7803">name : String</text></g><g class="link" data-entity-1="Book" data-entity-2="Author" data-uid="lnk4" id="link_Book_Author"><polygon fill="#181818" points="53.5,80.3005,49.5,86.3005,53.5,92.3005,57.5,86.3005,53.5,80.3005" style="stroke:#181818;stroke-width:1;"/><path d="M53.5,92.3005 C53.5,109.0657 53.5,117.0982 53.5,132.7564" fill="none" style="stroke:#181818;stroke-width:1;"/><text fill="#000000" font-family="Helvetica" font-size="13" lengthAdjust="spacing" textLength="43.3608" x="55.5" y="110.0103">authors</text><text fill="#000000" font-family="Helvetica" font-size="13" lengthAdjust="spacing" textLength="19.5127" x="33.5" y="128.7667">1..*</text></g><!--SRC=[JOwz3e9048JxUugLaWIYBHsQ66riU885LhXmF-HkJuE6T_SWQkXsThwPp6vqs6a4XPCD35uJeq7X1sb6TAYXncRed0scFLbb7JnxoRJnMxfZK7osXc-e2Iwa7iIoGT7Bbe3qo1DeqZKvluar2hqlcPsi0zEriQQIBuAzM0quMZl0Mm2mP4LGG1L9qyN7HEYYbeR5_8NBm7rSjk1ccV2dPx7sf5a6oI7Fq-I75e3huJy0]--></g></svg>