<?xml version="1.0" encoding="UTF-8" standalone="no"?>
<!DOCTYPE svg PUBLIC "-//W3C//DTD SVG 1.1//EN"
 "http://www.w3.org/Graphics/SVG/1.1/DTD/svg11.dtd">
<!-- Generated by graphviz version 2.40.1 (20161225.0304)
 -->
<!-- Title: G Pages: 1 -->
<svg width="288pt" height="246pt"
 viewBox="0.00 0.00 288.00 246.31" xmlns="http://www.w3.org/2000/svg" xmlns:xlink="http://www.w3.org/1999/xlink">
<g id="graph0" class="graph" transform="scale(.8265 .8265) rotate(0) translate(4 294)">
<title>G</title>
<polygon fill="#ffffff" stroke="transparent" points="-4,4 -4,-294 344.44,-294 344.44,4 -4,4"/>
<!-- main -->
<g id="node1" class="node">
<title>main</title>
<polygon fill="none" stroke="#000000" points="159.0467,-290 105.0467,-290 105.0467,-254 159.0467,-254 159.0467,-290"/>
<text text-anchor="middle" x="132.0467" y="-268.3" font-family="Times,serif" font-size="14.00" fill="#000000">main</text>
</g>
<!-- parse -->
<g id="node2" class="node">
<title>parse</title>
<ellipse fill="none" stroke="#000000" cx="132.0467" cy="-199" rx="36.2938" ry="18"/>
<text text-anchor="middle" x="132.0467" y="-195.3" font-family="Times,serif" font-size="14.00" fill="#000000">parse</text>
</g>
<!-- main&#45;&gt;parse -->
<g id="edge1" class="edge">
<title>main&#45;&gt;parse</title>
<path fill="none" stroke="#000000" d="M132.0467,-253.9551C132.0467,-245.8828 132.0467,-236.1764 132.0467,-227.1817"/>
<polygon fill="#000000" stroke="#000000" points="135.5468,-227.0903 132.0467,-217.0904 128.5468,-227.0904 135.5468,-227.0903"/>
</g>
<!-- init -->
<g id="node4" class="node">
<title>init</title>
<ellipse fill="none" stroke="#000000" cx="216.0467" cy="-145" rx="27" ry="18"/>
<text text-anchor="middle" x="216.0467" y="-141.3" font-family="Times,serif" font-size="14.00" fill="#000000">init</text>
</g>
<!-- main&#45;&gt;init -->
<g id="edge3" class="edge">
<title>main&#45;&gt;init</title>
<path fill="none" stroke="#000000" stroke-dasharray="1,5" d="M148.3725,-253.8412C157.3476,-243.4331 168.3841,-229.9077 177.0467,-217 186.7659,-202.5178 196.1268,-185.3799 203.2405,-171.458"/>
<polygon fill="#000000" stroke="#000000" points="206.4261,-172.9133 207.7831,-162.4057 200.1697,-169.7736 206.4261,-172.9133"/>
</g>
<!-- cleanup -->
<g id="node5" class="node">
<title>cleanup</title>
<ellipse fill="none" stroke="#000000" cx="271.0467" cy="-199" rx="47.3916" ry="18"/>
<text text-anchor="middle" x="271.0467" y="-195.3" font-family="Times,serif" font-size="14.00" fill="#000000">cleanup</text>
</g>
<!-- main&#45;&gt;cleanup -->
<g id="edge4" class="edge">
<title>main&#45;&gt;cleanup</title>
<path fill="none" stroke="#000000" d="M159.1253,-260.4049C174.3007,-253.6833 193.4553,-244.8245 210.0467,-236 219.3146,-231.0707 229.1316,-225.35 238.1184,-219.9022"/>
<polygon fill="#000000" stroke="#000000" points="240.0874,-222.8003 246.7773,-214.5847 236.4242,-216.8353 240.0874,-222.8003"/>
</g>
<!-- printf -->
<g id="node7" class="node">
<title>printf</title>
<ellipse fill="none" stroke="#000000" cx="37.0467" cy="-18" rx="37.0935" ry="18"/>
<text text-anchor="middle" x="37.0467" y="-14.3" font-family="Times,serif" font-size="14.00" fill="#000000">printf</text>
</g>
<!-- main&#45;&gt;printf -->
<g id="edge8" class="edge">
<title>main&#45;&gt;printf</title>
<path fill="none" stroke="#ff0000" stroke-width="2" d="M114.3459,-253.774C95.9385,-233.4969 68.153,-198.8446 56.0467,-163 42.8781,-124.0101 38.7683,-76.2626 37.5251,-46.4795"/>
<polygon fill="#ff0000" stroke="#ff0000" stroke-width="2" points="41.0193,-46.2458 37.1853,-36.369 34.0232,-46.4809 41.0193,-46.2458"/>
<text text-anchor="middle" x="92.0467" y="-141.3" font-family="Times,serif" font-size="14.00" fill="#000000">100 times</text>
</g>
<!-- execute -->
<g id="node3" class="node">
<title>execute</title>
<ellipse fill="none" stroke="#000000" cx="132.0467" cy="-91" rx="47.3916" ry="18"/>
<text text-anchor="middle" x="132.0467" y="-87.3" font-family="Times,serif" font-size="14.00" fill="#000000">execute</text>
</g>
<!-- parse&#45;&gt;execute -->
<g id="edge2" class="edge">
<title>parse&#45;&gt;execute</title>
<path fill="none" stroke="#000000" d="M132.0467,-180.6793C132.0467,-163.821 132.0467,-138.5651 132.0467,-119.147"/>
<polygon fill="#000000" stroke="#000000" points="135.5468,-119.0501 132.0467,-109.0502 128.5468,-119.0502 135.5468,-119.0501"/>
</g>
<!-- make_string -->
<g id="node6" class="node">
<title>make_string</title>
<ellipse fill="none" stroke="#000000" cx="265.0467" cy="-18" rx="75.2868" ry="18"/>
<text text-anchor="middle" x="265.0467" y="-14.3" font-family="Times,serif" font-size="14.00" fill="#000000">make a string</text>
</g>
<!-- execute&#45;&gt;make_string -->
<g id="edge5" class="edge">
<title>execute&#45;&gt;make_string</title>
<path fill="none" stroke="#000000" d="M159.2822,-76.0512C178.4336,-65.5395 204.3542,-51.3124 225.7411,-39.5738"/>
<polygon fill="#000000" stroke="#000000" points="227.5141,-42.5932 234.5964,-34.7133 224.146,-36.4568 227.5141,-42.5932"/>
</g>
<!-- execute&#45;&gt;printf -->
<g id="edge6" class="edge">
<title>execute&#45;&gt;printf</title>
<path fill="none" stroke="#000000" d="M110.9631,-74.7989C97.5287,-64.4756 79.9605,-50.9759 65.3225,-39.7277"/>
<polygon fill="#000000" stroke="#000000" points="67.1578,-36.724 57.0958,-33.4061 62.8926,-42.2745 67.1578,-36.724"/>
</g>
<!-- compare -->
<g id="node8" class="node">
<title>compare</title>
<polygon fill="#c1b2ff" stroke="#c1b2ff" points="171.5467,-36 92.5467,-36 92.5467,0 171.5467,0 171.5467,-36"/>
<text text-anchor="middle" x="132.0467" y="-14.3" font-family="Times,serif" font-size="14.00" fill="#000000">compare</text>
</g>
<!-- execute&#45;&gt;compare -->
<g id="edge9" class="edge">
<title>execute&#45;&gt;compare</title>
<path fill="none" stroke="#ff0000" d="M132.0467,-72.9551C132.0467,-64.8828 132.0467,-55.1764 132.0467,-46.1817"/>
<polygon fill="#ff0000" stroke="#ff0000" points="135.5468,-46.0903 132.0467,-36.0904 128.5468,-46.0904 135.5468,-46.0903"/>
</g>
<!-- init&#45;&gt;make_string -->
<g id="edge7" class="edge">
<title>init&#45;&gt;make_string</title>
<path fill="none" stroke="#000000" d="M222.86,-127.3412C230.9955,-106.2553 244.7023,-70.7294 254.2771,-45.913"/>
<polygon fill="#000000" stroke="#000000" points="257.6397,-46.9208 257.974,-36.3313 251.1089,-44.401 257.6397,-46.9208"/>
</g>
</g>

<g transform="translate(0.000000,17.000000) scale(0.100000,-0.100000)"
fill="#000000" stroke="none">
<path d="M21 157 c-29 -35 -16 -97 20 -97 15 0 19 -5 15 -16 -3 -9 -6 -20 -6
-25 0 -5 -4 -9 -10 -9 -14 0 -12 27 3 33 6 3 2 6 -10 6 -30 1 -31 -35 -3 -44
28 -9 47 9 55 51 3 20 9 42 12 50 3 8 -1 14 -11 14 -9 0 -16 -8 -16 -19 0 -26
-15 -34 -30 -16 -13 16 -6 48 16 70 14 13 13 15 -4 15 -11 0 -25 -6 -31 -13z"/>
<path d="M80 150 c0 -13 5 -20 13 -17 6 2 12 10 12 17 0 7 -6 15 -12 18 -8 2
-13 -5 -13 -18z"/>
<path d="M347 164 c-13 -13 -7 -24 14 -24 11 0 19 5 17 12 -5 14 -22 21 -31
12z"/>
<path d="M103 85 c-9 -40 -8 -45 8 -45 13 0 19 9 21 33 2 24 7 31 21 29 10 -2
17 3 17 13 0 10 -9 15 -28 15 -26 0 -30 -5 -39 -45z"/>
<path d="M175 101 c-24 -48 -13 -59 64 -60 63 -1 69 1 79 25 15 31 15 64 1 64
-6 0 -8 -8 -5 -18 4 -10 -1 -27 -10 -38 -14 -18 -15 -17 -9 19 5 29 3 37 -9
37 -9 0 -18 -13 -22 -35 -3 -19 -10 -35 -14 -35 -4 0 -4 16 0 35 8 35 8 35
-26 35 -27 0 -36 -6 -49 -29z m47 -6 c-5 -28 -22 -44 -22 -21 0 21 11 46 20
46 4 0 5 -11 2 -25z"/>
<path d="M340 116 c0 -7 -3 -28 -6 -45 -6 -26 -3 -31 13 -31 10 0 25 6 32 12
11 10 13 10 7 1 -5 -9 3 -13 28 -13 25 0 36 4 36 15 0 8 -4 15 -10 15 -5 0
-10 -4 -10 -10 0 -5 -5 -10 -11 -10 -6 0 -2 12 9 28 36 51 36 52 -2 52 -25 0
-36 -4 -36 -15 0 -8 5 -15 10 -15 6 0 10 5 10 12 0 6 3 9 6 6 9 -10 -19 -46
-39 -52 -17 -4 -18 -1 -13 30 6 27 4 34 -9 34 -8 0 -15 -6 -15 -14z"/>
<path d="M472 118 c-7 -7 -12 -27 -12 -46 0 -30 2 -33 27 -30 17 2 32 12 39
27 7 13 18 28 26 33 10 8 9 8 -4 4 -12 -3 -18 0 -18 9 0 18 -41 20 -58 3z m29
-51 c-13 -13 -15 11 -4 40 7 16 8 15 11 -6 2 -13 -1 -28 -7 -34z"/>
</g>
</svg>
